<svg width="888" height="849" viewBox="0 0 888 849" fill="none" xmlns="http://www.w3.org/2000/svg">
<g clip-path="url(#clip0_1693_16056)">
<rect width="887.72" height="849" fill="#FAFAFA"/>
<path d="M0 10.1477C13.4359 11.3117 35.2496 19.356 64.4925 15.7348C93.7354 12.1135 108.752 -9.04484 140.366 -7.23423C171.98 -5.42361 184.625 26.107 216.239 24.4257C247.853 22.7444 260.499 -17.115 292.113 -15.3044C323.727 -13.4938 336.372 30.1421 367.986 33.1167C399.6 36.0913 412.246 1.43087 443.86 -1.0264C475.474 -3.48366 488.119 21.4511 519.733 21.3218C551.347 21.1925 563.993 -2.03517 595.607 -1.64718C627.221 -1.25919 639.866 22.9255 671.48 23.1841C703.094 23.4428 715.74 -1.69891 747.354 -0.405612C778.968 0.887686 793.984 27.1934 823.227 29.392C852.47 31.5906 874.284 14.1569 887.72 10.1477" stroke="url(#paint0_linear_1693_16056)" stroke-width="1.24157" stroke-linecap="round"/>
<path d="M0 19.7004C13.4359 20.8644 35.2496 28.9087 64.4925 25.2875C93.7354 21.6663 108.752 0.507891 140.366 2.31851C171.98 4.12913 184.625 35.6597 216.239 33.9784C247.853 32.2972 260.499 -7.56229 292.113 -5.75167C323.727 -3.94106 336.372 39.6948 367.986 42.6694C399.6 45.644 412.246 10.9836 443.86 8.52634C475.474 6.06907 488.119 31.0039 519.733 30.8745C551.347 30.7452 563.993 7.51757 595.607 7.90556C627.221 8.29355 639.866 32.4782 671.48 32.7369C703.094 32.9955 715.74 7.85382 747.354 9.14712C778.968 10.4404 793.984 36.7461 823.227 38.9447C852.47 41.1433 874.284 23.7097 887.72 19.7004" stroke="url(#paint1_linear_1693_16056)" stroke-width="1.24157" stroke-linecap="round"/>
<path d="M0 29.2532C13.4359 30.4171 35.2496 38.4615 64.4925 34.8402C93.7354 31.219 108.752 10.0606 140.366 11.8712C171.98 13.6819 184.625 45.2125 216.239 43.5312C247.853 41.8499 260.499 1.99044 292.113 3.80106C323.727 5.61168 336.372 49.2476 367.986 52.2221C399.6 55.1967 412.246 20.5363 443.86 18.0791C475.474 15.6218 488.119 40.5566 519.733 40.4273C551.347 40.2979 563.993 17.0703 595.607 17.4583C627.221 17.8463 639.866 42.031 671.48 42.2896C703.094 42.5483 715.74 17.4066 747.354 18.6999C778.968 19.9932 793.984 46.2988 823.227 48.4974C852.47 50.6961 874.284 33.2624 887.72 29.2532" stroke="url(#paint2_linear_1693_16056)" stroke-width="1.24157" stroke-linecap="round"/>
<path d="M0 38.8049C13.4359 39.9689 35.2496 48.0132 64.4925 44.392C93.7354 40.7707 108.752 19.6124 140.366 21.423C171.98 23.2336 184.625 54.7642 216.239 53.0829C247.853 51.4017 260.499 11.5422 292.113 13.3528C323.727 15.1634 336.372 58.7993 367.986 61.7739C399.6 64.7485 412.246 30.0881 443.86 27.6308C475.474 25.1736 488.119 50.1084 519.733 49.979C551.347 49.8497 563.993 26.6221 595.607 27.01C627.221 27.398 639.866 51.5827 671.48 51.8414C703.094 52.1 715.74 26.9583 747.354 28.2516C778.968 29.5449 793.984 55.8506 823.227 58.0492C852.47 60.2478 874.284 42.8142 887.72 38.8049" stroke="url(#paint3_linear_1693_16056)" stroke-width="1.24157" stroke-linecap="round"/>
<path d="M0 48.3577C13.4359 49.5216 35.2496 57.5659 64.4925 53.9447C93.7354 50.3235 108.752 29.1651 140.366 30.9757C171.98 32.7864 184.625 64.317 216.239 62.6357C247.853 60.9544 260.499 21.0949 292.113 22.9056C323.727 24.7162 336.372 68.3521 367.986 71.3266C399.6 74.3012 412.246 39.6408 443.86 37.1836C475.474 34.7263 488.119 59.6611 519.733 59.5318C551.347 59.4024 563.993 36.1748 595.607 36.5628C627.221 36.9508 639.866 61.1355 671.48 61.3941C703.094 61.6528 715.74 36.5111 747.354 37.8043C778.968 39.0976 793.984 65.4033 823.227 67.6019C852.47 69.8005 874.284 52.3669 887.72 48.3577" stroke="url(#paint4_linear_1693_16056)" stroke-width="1.24157" stroke-linecap="round"/>
<path d="M0 57.9104C13.4359 59.0744 35.2496 67.1187 64.4925 63.4974C93.7354 59.8762 108.752 38.7179 140.366 40.5285C171.98 42.3391 184.625 73.8697 216.239 72.1884C247.853 70.5071 260.499 30.6477 292.113 32.4583C323.727 34.2689 336.372 77.9048 367.986 80.8794C399.6 83.854 412.246 49.1936 443.86 46.7363C475.474 44.279 488.119 69.2138 519.733 69.0845C551.347 68.9552 563.993 45.7275 595.607 46.1155C627.221 46.5035 639.866 70.6882 671.48 70.9468C703.094 71.2055 715.74 46.0638 747.354 47.3571C778.968 48.6504 793.984 74.9561 823.227 77.1547C852.47 79.3533 874.284 61.9196 887.72 57.9104" stroke="url(#paint5_linear_1693_16056)" stroke-width="1.24157" stroke-linecap="round"/>
<path d="M0 67.4631C13.4359 68.6271 35.2496 76.6714 64.4925 73.0502C93.7354 69.4289 108.752 48.2706 140.366 50.0812C171.98 51.8918 184.625 83.4224 216.239 81.7411C247.853 80.0599 260.499 40.2004 292.113 42.011C323.727 43.8216 336.372 87.4575 367.986 90.4321C399.6 93.4067 412.246 58.7463 443.86 56.289C475.474 53.8318 488.119 78.7666 519.733 78.6372C551.347 78.5079 563.993 55.2803 595.607 55.6683C627.221 56.0562 639.866 80.2409 671.48 80.4996C703.094 80.7582 715.74 55.6165 747.354 56.9098C778.968 58.2031 793.984 84.5088 823.227 86.7074C852.47 88.906 874.284 71.4724 887.72 67.4631" stroke="url(#paint6_linear_1693_16056)" stroke-width="1.24157" stroke-linecap="round"/>
<path d="M0 77.0149C13.4359 78.1789 35.2496 86.2232 64.4925 82.6019C93.7354 78.9807 108.752 57.8223 140.366 59.633C171.98 61.4436 184.625 92.9742 216.239 91.2929C247.853 89.6116 260.499 49.7522 292.113 51.5628C323.727 53.3734 336.372 97.0093 367.986 99.9839C399.6 102.958 412.246 68.2981 443.86 65.8408C475.474 63.3835 488.119 88.3183 519.733 88.189C551.347 88.0597 563.993 64.832 595.607 65.22C627.221 65.608 639.866 89.7927 671.48 90.0513C703.094 90.31 715.74 65.1683 747.354 66.4616C778.968 67.7549 793.984 94.0606 823.227 96.2592C852.47 98.4578 874.284 81.0241 887.72 77.0149" stroke="url(#paint7_linear_1693_16056)" stroke-width="1.24157" stroke-linecap="round"/>
<path d="M0 86.5676C13.4359 87.7316 35.2496 95.7759 64.4925 92.1547C93.7354 88.5334 108.752 67.3751 140.366 69.1857C171.98 70.9963 184.625 102.527 216.239 100.846C247.853 99.1643 260.499 59.3049 292.113 61.1155C323.727 62.9261 336.372 106.562 367.986 109.537C399.6 112.511 412.246 77.8508 443.86 75.3935C475.474 72.9363 488.119 97.8711 519.733 97.7417C551.347 97.6124 563.993 74.3848 595.607 74.7727C627.221 75.1607 639.866 99.3454 671.48 99.6041C703.094 99.8627 715.74 74.721 747.354 76.0143C778.968 77.3076 793.984 103.613 823.227 105.812C852.47 108.011 874.284 90.5768 887.72 86.5676" stroke="url(#paint8_linear_1693_16056)" stroke-width="1.24157" stroke-linecap="round"/>
<path d="M0 96.1204C13.4359 97.2843 35.2496 105.329 64.4925 101.707C93.7354 98.0862 108.752 76.9278 140.366 78.7384C171.98 80.549 184.625 112.08 216.239 110.398C247.853 108.717 260.499 68.8576 292.113 70.6682C323.727 72.4789 336.372 116.115 367.986 119.089C399.6 122.064 412.246 87.4035 443.86 84.9463C475.474 82.489 488.119 107.424 519.733 107.294C551.347 107.165 563.993 83.9375 595.607 84.3255C627.221 84.7135 639.866 108.898 671.48 109.157C703.094 109.415 715.74 84.2737 747.354 85.567C778.968 86.8603 793.984 113.166 823.227 115.365C852.47 117.563 874.284 100.13 887.72 96.1204" stroke="url(#paint9_linear_1693_16056)" stroke-width="1.24157" stroke-linecap="round"/>
<path d="M0 105.673C13.4359 106.837 35.2496 114.881 64.4925 111.26C93.7354 107.639 108.752 86.4805 140.366 88.2912C171.98 90.1018 184.625 121.632 216.239 119.951C247.853 118.27 260.499 78.4104 292.113 80.221C323.727 82.0316 336.372 125.667 367.986 128.642C399.6 131.617 412.246 96.9563 443.86 94.499C475.474 92.0417 488.119 116.977 519.733 116.847C551.347 116.718 563.993 93.4902 595.607 93.8782C627.221 94.2662 639.866 118.451 671.48 118.71C703.094 118.968 715.74 93.8265 747.354 95.1198C778.968 96.4131 793.984 122.719 823.227 124.917C852.47 127.116 874.284 109.682 887.72 105.673" stroke="url(#paint10_linear_1693_16056)" stroke-width="1.24157" stroke-linecap="round"/>
<path d="M0 115.225C13.4359 116.389 35.2496 124.433 64.4925 120.812C93.7354 117.191 108.752 96.0323 140.366 97.8429C171.98 99.6535 184.625 131.184 216.239 129.503C247.853 127.822 260.499 87.9621 292.113 89.7727C323.727 91.5834 336.372 135.219 367.986 138.194C399.6 141.168 412.246 106.508 443.86 104.051C475.474 101.593 488.119 126.528 519.733 126.399C551.347 126.27 563.993 103.042 595.607 103.43C627.221 103.818 639.866 128.003 671.48 128.261C703.094 128.52 715.74 103.378 747.354 104.672C778.968 105.965 793.984 132.271 823.227 134.469C852.47 136.668 874.284 119.234 887.72 115.225" stroke="url(#paint11_linear_1693_16056)" stroke-width="1.24157" stroke-linecap="round"/>
<path d="M0 124.778C13.4359 125.942 35.2496 133.986 64.4925 130.365C93.7354 126.743 108.752 105.585 140.366 107.396C171.98 109.206 184.625 140.737 216.239 139.056C247.853 137.374 260.499 97.5149 292.113 99.3255C323.727 101.136 336.372 144.772 367.986 147.747C399.6 150.721 412.246 116.061 443.86 113.603C475.474 111.146 488.119 136.081 519.733 135.952C551.347 135.822 563.993 112.595 595.607 112.983C627.221 113.371 639.866 137.555 671.48 137.814C703.094 138.073 715.74 112.931 747.354 114.224C778.968 115.518 793.984 141.823 823.227 144.022C852.47 146.22 874.284 128.787 887.72 124.778" stroke="url(#paint12_linear_1693_16056)" stroke-width="1.24157" stroke-linecap="round"/>
<path d="M0 134.33C13.4359 135.494 35.2496 143.539 64.4925 139.917C93.7354 136.296 108.752 115.138 140.366 116.948C171.98 118.759 184.625 150.29 216.239 148.608C247.853 146.927 260.499 107.068 292.113 108.878C323.727 110.689 336.372 154.325 367.986 157.299C399.6 160.274 412.246 125.613 443.86 123.156C475.474 120.699 488.119 145.634 519.733 145.504C551.347 145.375 563.993 122.147 595.607 122.535C627.221 122.923 639.866 147.108 671.48 147.367C703.094 147.625 715.74 122.484 747.354 123.777C778.968 125.07 793.984 151.376 823.227 153.575C852.47 155.773 874.284 138.34 887.72 134.33" stroke="url(#paint13_linear_1693_16056)" stroke-width="1.24157" stroke-linecap="round"/>
<path d="M0 143.883C13.4359 145.047 35.2496 153.091 64.4925 149.47C93.7354 145.849 108.752 124.691 140.366 126.501C171.98 128.312 184.625 159.842 216.239 158.161C247.853 156.48 260.499 116.62 292.113 118.431C323.727 120.242 336.372 163.877 367.986 166.852C399.6 169.827 412.246 135.166 443.86 132.709C475.474 130.252 488.119 155.186 519.733 155.057C551.347 154.928 563.993 131.7 595.607 132.088C627.221 132.476 639.866 156.661 671.48 156.92C703.094 157.178 715.74 132.036 747.354 133.33C778.968 134.623 793.984 160.929 823.227 163.127C852.47 165.326 874.284 147.892 887.72 143.883" stroke="url(#paint14_linear_1693_16056)" stroke-width="1.24157" stroke-linecap="round"/>
<path d="M0 153.435C13.4359 154.599 35.2496 162.643 64.4925 159.022C93.7354 155.401 108.752 134.242 140.366 136.053C171.98 137.864 184.625 169.394 216.239 167.713C247.853 166.032 260.499 126.172 292.113 127.983C323.727 129.793 336.372 173.429 367.986 176.404C399.6 179.378 412.246 144.718 443.86 142.261C475.474 139.803 488.119 164.738 519.733 164.609C551.347 164.48 563.993 141.252 595.607 141.64C627.221 142.028 639.866 166.213 671.48 166.471C703.094 166.73 715.74 141.588 747.354 142.881C778.968 144.175 793.984 170.48 823.227 172.679C852.47 174.878 874.284 157.444 887.72 153.435" stroke="url(#paint15_linear_1693_16056)" stroke-width="1.24157" stroke-linecap="round"/>
<path d="M0 162.988C13.4359 164.152 35.2496 172.196 64.4925 168.575C93.7354 164.953 108.752 143.795 140.366 145.606C171.98 147.416 184.625 178.947 216.239 177.266C247.853 175.584 260.499 135.725 292.113 137.535C323.727 139.346 336.372 182.982 367.986 185.957C399.6 188.931 412.246 154.271 443.86 151.813C475.474 149.356 488.119 174.291 519.733 174.162C551.347 174.032 563.993 150.805 595.607 151.193C627.221 151.581 639.866 175.765 671.48 176.024C703.094 176.283 715.74 151.141 747.354 152.434C778.968 153.728 793.984 180.033 823.227 182.232C852.47 184.43 874.284 166.997 887.72 162.988" stroke="url(#paint16_linear_1693_16056)" stroke-width="1.24157" stroke-linecap="round"/>
<path d="M0 172.54C13.4359 173.704 35.2496 181.749 64.4925 178.127C93.7354 174.506 108.752 153.348 140.366 155.158C171.98 156.969 184.625 188.5 216.239 186.818C247.853 185.137 260.499 145.278 292.113 147.088C323.727 148.899 336.372 192.535 367.986 195.509C399.6 198.484 412.246 163.823 443.86 161.366C475.474 158.909 488.119 183.844 519.733 183.714C551.347 183.585 563.993 160.357 595.607 160.745C627.221 161.133 639.866 185.318 671.48 185.577C703.094 185.835 715.74 160.694 747.354 161.987C778.968 163.28 793.984 189.586 823.227 191.785C852.47 193.983 874.284 176.55 887.72 172.54" stroke="url(#paint17_linear_1693_16056)" stroke-width="1.24157" stroke-linecap="round"/>
<path d="M0 182.093C13.4359 183.257 35.2496 191.301 64.4925 187.68C93.7354 184.059 108.752 162.9 140.366 164.711C171.98 166.522 184.625 198.052 216.239 196.371C247.853 194.69 260.499 154.83 292.113 156.641C323.727 158.452 336.372 202.087 367.986 205.062C399.6 208.037 412.246 173.376 443.86 170.919C475.474 168.462 488.119 193.396 519.733 193.267C551.347 193.138 563.993 169.91 595.607 170.298C627.221 170.686 639.866 194.871 671.48 195.129C703.094 195.388 715.74 170.246 747.354 171.54C778.968 172.833 793.984 199.139 823.227 201.337C852.47 203.536 874.284 186.102 887.72 182.093" stroke="url(#paint18_linear_1693_16056)" stroke-width="1.24157" stroke-linecap="round"/>
<path d="M0 191.645C13.4359 192.809 35.2496 200.853 64.4925 197.232C93.7354 193.611 108.752 172.452 140.366 174.263C171.98 176.073 184.625 207.604 216.239 205.923C247.853 204.241 260.499 164.382 292.113 166.193C323.727 168.003 336.372 211.639 367.986 214.614C399.6 217.588 412.246 182.928 443.86 180.471C475.474 178.013 488.119 202.948 519.733 202.819C551.347 202.69 563.993 179.462 595.607 179.85C627.221 180.238 639.866 204.423 671.48 204.681C703.094 204.94 715.74 179.798 747.354 181.091C778.968 182.385 793.984 208.69 823.227 210.889C852.47 213.088 874.284 195.654 887.72 191.645" stroke="url(#paint19_linear_1693_16056)" stroke-width="1.24157" stroke-linecap="round"/>
<path d="M0 201.198C13.4359 202.361 35.2496 210.406 64.4925 206.785C93.7354 203.163 108.752 182.005 140.366 183.816C171.98 185.626 184.625 217.157 216.239 215.476C247.853 213.794 260.499 173.935 292.113 175.745C323.727 177.556 336.372 221.192 367.986 224.166C399.6 227.141 412.246 192.481 443.86 190.023C475.474 187.566 488.119 212.501 519.733 212.372C551.347 212.242 563.993 189.015 595.607 189.403C627.221 189.791 639.866 213.975 671.48 214.234C703.094 214.493 715.74 189.351 747.354 190.644C778.968 191.937 793.984 218.243 823.227 220.442C852.47 222.64 874.284 205.207 887.72 201.198" stroke="url(#paint20_linear_1693_16056)" stroke-width="1.24157" stroke-linecap="round"/>
<path d="M0 210.75C13.4359 211.914 35.2496 219.959 64.4925 216.337C93.7354 212.716 108.752 191.558 140.366 193.368C171.98 195.179 184.625 226.71 216.239 225.028C247.853 223.347 260.499 183.488 292.113 185.298C323.727 187.109 336.372 230.745 367.986 233.719C399.6 236.694 412.246 202.033 443.86 199.576C475.474 197.119 488.119 222.054 519.733 221.924C551.347 221.795 563.993 198.567 595.607 198.955C627.221 199.343 639.866 223.528 671.48 223.787C703.094 224.045 715.74 198.904 747.354 200.197C778.968 201.49 793.984 227.796 823.227 229.995C852.47 232.193 874.284 214.759 887.72 210.75" stroke="url(#paint21_linear_1693_16056)" stroke-width="1.24157" stroke-linecap="round"/>
<path d="M0 220.303C13.4359 221.467 35.2496 229.511 64.4925 225.89C93.7354 222.269 108.752 201.11 140.366 202.921C171.98 204.732 184.625 236.262 216.239 234.581C247.853 232.9 260.499 193.04 292.113 194.851C323.727 196.661 336.372 240.297 367.986 243.272C399.6 246.247 412.246 211.586 443.86 209.129C475.474 206.672 488.119 231.606 519.733 231.477C551.347 231.348 563.993 208.12 595.607 208.508C627.221 208.896 639.866 233.081 671.48 233.339C703.094 233.598 715.74 208.456 747.354 209.75C778.968 211.043 793.984 237.349 823.227 239.547C852.47 241.746 874.284 224.312 887.72 220.303" stroke="url(#paint22_linear_1693_16056)" stroke-width="1.24157" stroke-linecap="round"/>
<path d="M0 229.855C13.4359 231.019 35.2496 239.063 64.4925 235.442C93.7354 231.821 108.752 210.662 140.366 212.473C171.98 214.283 184.625 245.814 216.239 244.133C247.853 242.451 260.499 202.592 292.113 204.403C323.727 206.213 336.372 249.849 367.986 252.824C399.6 255.798 412.246 221.138 443.86 218.681C475.474 216.223 488.119 241.158 519.733 241.029C551.347 240.9 563.993 217.672 595.607 218.06C627.221 218.448 639.866 242.633 671.48 242.891C703.094 243.15 715.74 218.008 747.354 219.301C778.968 220.595 793.984 246.9 823.227 249.099C852.47 251.298 874.284 233.864 887.72 229.855" stroke="url(#paint23_linear_1693_16056)" stroke-width="1.24157" stroke-linecap="round"/>
<path d="M0 239.407C13.4359 240.571 35.2496 248.616 64.4925 244.995C93.7354 241.373 108.752 220.215 140.366 222.026C171.98 223.836 184.625 255.367 216.239 253.685C247.853 252.004 260.499 212.145 292.113 213.955C323.727 215.766 336.372 259.402 367.986 262.376C399.6 265.351 412.246 230.691 443.86 228.233C475.474 225.776 488.119 250.711 519.733 250.582C551.347 250.452 563.993 227.225 595.607 227.613C627.221 228.001 639.866 252.185 671.48 252.444C703.094 252.703 715.74 227.561 747.354 228.854C778.968 230.147 793.984 256.453 823.227 258.652C852.47 260.85 874.284 243.417 887.72 239.407" stroke="url(#paint24_linear_1693_16056)" stroke-width="1.24157" stroke-linecap="round"/>
<path d="M0 248.96C13.4359 250.124 35.2496 258.168 64.4925 254.547C93.7354 250.926 108.752 229.768 140.366 231.578C171.98 233.389 184.625 264.92 216.239 263.238C247.853 261.557 260.499 221.697 292.113 223.508C323.727 225.319 336.372 268.955 367.986 271.929C399.6 274.904 412.246 240.243 443.86 237.786C475.474 235.329 488.119 260.264 519.733 260.134C551.347 260.005 563.993 236.777 595.607 237.165C627.221 237.553 639.866 261.738 671.48 261.997C703.094 262.255 715.74 237.114 747.354 238.407C778.968 239.7 793.984 266.006 823.227 268.204C852.47 270.403 874.284 252.969 887.72 248.96" stroke="url(#paint25_linear_1693_16056)" stroke-width="1.24157" stroke-linecap="round"/>
<path d="M0 258.513C13.4359 259.677 35.2496 267.721 64.4925 264.1C93.7354 260.479 108.752 239.32 140.366 241.131C171.98 242.942 184.625 274.472 216.239 272.791C247.853 271.11 260.499 231.25 292.113 233.061C323.727 234.871 336.372 278.507 367.986 281.482C399.6 284.456 412.246 249.796 443.86 247.339C475.474 244.882 488.119 269.816 519.733 269.687C551.347 269.558 563.993 246.33 595.607 246.718C627.221 247.106 639.866 271.291 671.48 271.549C703.094 271.808 715.74 246.666 747.354 247.96C778.968 249.253 793.984 275.559 823.227 277.757C852.47 279.956 874.284 262.522 887.72 258.513" stroke="url(#paint26_linear_1693_16056)" stroke-width="1.24157" stroke-linecap="round"/>
<path d="M0 268.065C13.4359 269.229 35.2496 277.273 64.4925 273.652C93.7354 270.031 108.752 248.872 140.366 250.683C171.98 252.493 184.625 284.024 216.239 282.343C247.853 280.661 260.499 240.802 292.113 242.613C323.727 244.423 336.372 288.059 367.986 291.034C399.6 294.008 412.246 259.348 443.86 256.891C475.474 254.433 488.119 279.368 519.733 279.239C551.347 279.109 563.993 255.882 595.607 256.27C627.221 256.658 639.866 280.842 671.48 281.101C703.094 281.36 715.74 256.218 747.354 257.511C778.968 258.805 793.984 285.11 823.227 287.309C852.47 289.508 874.284 272.074 887.72 268.065" stroke="url(#paint27_linear_1693_16056)" stroke-width="1.24157" stroke-linecap="round"/>
<path d="M0 277.617C13.4359 278.781 35.2496 286.826 64.4925 283.204C93.7354 279.583 108.752 258.425 140.366 260.236C171.98 262.046 184.625 293.577 216.239 291.895C247.853 290.214 260.499 250.355 292.113 252.165C323.727 253.976 336.372 297.612 367.986 300.586C399.6 303.561 412.246 268.901 443.86 266.443C475.474 263.986 488.119 288.921 519.733 288.792C551.347 288.662 563.993 265.435 595.607 265.823C627.221 266.211 639.866 290.395 671.48 290.654C703.094 290.913 715.74 265.771 747.354 267.064C778.968 268.357 793.984 294.663 823.227 296.862C852.47 299.06 874.284 281.627 887.72 277.617" stroke="url(#paint28_linear_1693_16056)" stroke-width="1.24157" stroke-linecap="round"/>
<path d="M0 287.17C13.4359 288.334 35.2496 296.378 64.4925 292.757C93.7354 289.136 108.752 267.978 140.366 269.788C171.98 271.599 184.625 303.129 216.239 301.448C247.853 299.767 260.499 259.907 292.113 261.718C323.727 263.529 336.372 307.165 367.986 310.139C399.6 313.114 412.246 278.453 443.86 275.996C475.474 273.539 488.119 298.474 519.733 298.344C551.347 298.215 563.993 274.987 595.607 275.375C627.221 275.763 639.866 299.948 671.48 300.207C703.094 300.465 715.74 275.324 747.354 276.617C778.968 277.91 793.984 304.216 823.227 306.414C852.47 308.613 874.284 291.179 887.72 287.17" stroke="url(#paint29_linear_1693_16056)" stroke-width="1.24157" stroke-linecap="round"/>
<path d="M0 296.723C13.4359 297.887 35.2496 305.931 64.4925 302.31C93.7354 298.689 108.752 277.53 140.366 279.341C171.98 281.152 184.625 312.682 216.239 311.001C247.853 309.32 260.499 269.46 292.113 271.271C323.727 273.081 336.372 316.717 367.986 319.692C399.6 322.666 412.246 288.006 443.86 285.549C475.474 283.092 488.119 308.026 519.733 307.897C551.347 307.768 563.993 284.54 595.607 284.928C627.221 285.316 639.866 309.501 671.48 309.759C703.094 310.018 715.74 284.876 747.354 286.17C778.968 287.463 793.984 313.769 823.227 315.967C852.47 318.166 874.284 300.732 887.72 296.723" stroke="url(#paint30_linear_1693_16056)" stroke-width="1.24157" stroke-linecap="round"/>
<path d="M0 306.275C13.4359 307.439 35.2496 315.483 64.4925 311.862C93.7354 308.24 108.752 287.082 140.366 288.893C171.98 290.703 184.625 322.234 216.239 320.553C247.853 318.871 260.499 279.012 292.113 280.823C323.727 282.633 336.372 326.269 367.986 329.244C399.6 332.218 412.246 297.558 443.86 295.101C475.474 292.643 488.119 317.578 519.733 317.449C551.347 317.319 563.993 294.092 595.607 294.48C627.221 294.868 639.866 319.052 671.48 319.311C703.094 319.57 715.74 294.428 747.354 295.721C778.968 297.015 793.984 323.32 823.227 325.519C852.47 327.718 874.284 310.284 887.72 306.275" stroke="url(#paint31_linear_1693_16056)" stroke-width="1.24157" stroke-linecap="round"/>
<path d="M0 315.827C13.4359 316.991 35.2496 325.036 64.4925 321.414C93.7354 317.793 108.752 296.635 140.366 298.445C171.98 300.256 184.625 331.787 216.239 330.105C247.853 328.424 260.499 288.565 292.113 290.375C323.727 292.186 336.372 335.822 367.986 338.796C399.6 341.771 412.246 307.111 443.86 304.653C475.474 302.196 488.119 327.131 519.733 327.001C551.347 326.872 563.993 303.645 595.607 304.033C627.221 304.42 639.866 328.605 671.48 328.864C703.094 329.122 715.74 303.981 747.354 305.274C778.968 306.567 793.984 332.873 823.227 335.072C852.47 337.27 874.284 319.837 887.72 315.827" stroke="url(#paint32_linear_1693_16056)" stroke-width="1.24157" stroke-linecap="round"/>
<path d="M0 325.38C13.4359 326.544 35.2496 334.588 64.4925 330.967C93.7354 327.346 108.752 306.188 140.366 307.998C171.98 309.809 184.625 341.339 216.239 339.658C247.853 337.977 260.499 298.117 292.113 299.928C323.727 301.739 336.372 345.375 367.986 348.349C399.6 351.324 412.246 316.663 443.86 314.206C475.474 311.749 488.119 336.684 519.733 336.554C551.347 336.425 563.993 313.197 595.607 313.585C627.221 313.973 639.866 338.158 671.48 338.417C703.094 338.675 715.74 313.534 747.354 314.827C778.968 316.12 793.984 342.426 823.227 344.624C852.47 346.823 874.284 329.389 887.72 325.38" stroke="url(#paint33_linear_1693_16056)" stroke-width="1.24157" stroke-linecap="round"/>
<path d="M0 334.933C13.4359 336.097 35.2496 344.141 64.4925 340.52C93.7354 336.899 108.752 315.74 140.366 317.551C171.98 319.362 184.625 350.892 216.239 349.211C247.853 347.53 260.499 307.67 292.113 309.481C323.727 311.291 336.372 354.927 367.986 357.902C399.6 360.876 412.246 326.216 443.86 323.759C475.474 321.301 488.119 346.236 519.733 346.107C551.347 345.978 563.993 322.75 595.607 323.138C627.221 323.526 639.866 347.711 671.48 347.969C703.094 348.228 715.74 323.086 747.354 324.38C778.968 325.673 793.984 351.979 823.227 354.177C852.47 356.376 874.284 338.942 887.72 334.933" stroke="url(#paint34_linear_1693_16056)" stroke-width="1.24157" stroke-linecap="round"/>
<path d="M0 344.485C13.4359 345.649 35.2496 353.693 64.4925 350.072C93.7354 346.45 108.752 325.292 140.366 327.103C171.98 328.913 184.625 360.444 216.239 358.763C247.853 357.081 260.499 317.222 292.113 319.033C323.727 320.843 336.372 364.479 367.986 367.454C399.6 370.428 412.246 335.768 443.86 333.311C475.474 330.853 488.119 355.788 519.733 355.659C551.347 355.529 563.993 332.302 595.607 332.69C627.221 333.078 639.866 357.262 671.48 357.521C703.094 357.78 715.74 332.638 747.354 333.931C778.968 335.225 793.984 361.53 823.227 363.729C852.47 365.928 874.284 348.494 887.72 344.485" stroke="url(#paint35_linear_1693_16056)" stroke-width="1.24157" stroke-linecap="round"/>
<path d="M0 354.037C13.4359 355.201 35.2496 363.246 64.4925 359.624C93.7354 356.003 108.752 334.845 140.366 336.655C171.98 338.466 184.625 369.997 216.239 368.315C247.853 366.634 260.499 326.775 292.113 328.585C323.727 330.396 336.372 374.032 367.986 377.006C399.6 379.981 412.246 345.321 443.86 342.863C475.474 340.406 488.119 365.341 519.733 365.211C551.347 365.082 563.993 341.854 595.607 342.242C627.221 342.63 639.866 366.815 671.48 367.074C703.094 367.332 715.74 342.191 747.354 343.484C778.968 344.777 793.984 371.083 823.227 373.282C852.47 375.48 874.284 358.047 887.72 354.037" stroke="url(#paint36_linear_1693_16056)" stroke-width="1.24157" stroke-linecap="round"/>
<path d="M0 363.59C13.4359 364.754 35.2496 372.798 64.4925 369.177C93.7354 365.556 108.752 344.398 140.366 346.208C171.98 348.019 184.625 379.549 216.239 377.868C247.853 376.187 260.499 336.327 292.113 338.138C323.727 339.949 336.372 383.584 367.986 386.559C399.6 389.534 412.246 354.873 443.86 352.416C475.474 349.959 488.119 374.894 519.733 374.764C551.347 374.635 563.993 351.407 595.607 351.795C627.221 352.183 639.866 376.368 671.48 376.627C703.094 376.885 715.74 351.743 747.354 353.037C778.968 354.33 793.984 380.636 823.227 382.834C852.47 385.033 874.284 367.599 887.72 363.59" stroke="url(#paint37_linear_1693_16056)" stroke-width="1.24157" stroke-linecap="round"/>
<path d="M0 373.143C13.4359 374.307 35.2496 382.351 64.4925 378.73C93.7354 375.109 108.752 353.95 140.366 355.761C171.98 357.572 184.625 389.102 216.239 387.421C247.853 385.74 260.499 345.88 292.113 347.691C323.727 349.501 336.372 393.137 367.986 396.112C399.6 399.086 412.246 364.426 443.86 361.969C475.474 359.511 488.119 384.446 519.733 384.317C551.347 384.188 563.993 360.96 595.607 361.348C627.221 361.736 639.866 385.921 671.48 386.179C703.094 386.438 715.74 361.296 747.354 362.59C778.968 363.883 793.984 390.188 823.227 392.387C852.47 394.586 874.284 377.152 887.72 373.143" stroke="url(#paint38_linear_1693_16056)" stroke-width="1.24157" stroke-linecap="round"/>
<path d="M0 382.695C13.4359 383.859 35.2496 391.903 64.4925 388.282C93.7354 384.66 108.752 363.502 140.366 365.313C171.98 367.123 184.625 398.654 216.239 396.973C247.853 395.291 260.499 355.432 292.113 357.242C323.727 359.053 336.372 402.689 367.986 405.664C399.6 408.638 412.246 373.978 443.86 371.52C475.474 369.063 488.119 393.998 519.733 393.869C551.347 393.739 563.993 370.512 595.607 370.9C627.221 371.288 639.866 395.472 671.48 395.731C703.094 395.99 715.74 370.848 747.354 372.141C778.968 373.435 793.984 399.74 823.227 401.939C852.47 404.137 874.284 386.704 887.72 382.695" stroke="url(#paint39_linear_1693_16056)" stroke-width="1.24157" stroke-linecap="round"/>
<path d="M0 392.247C13.4359 393.411 35.2496 401.456 64.4925 397.834C93.7354 394.213 108.752 373.055 140.366 374.865C171.98 376.676 184.625 408.207 216.239 406.525C247.853 404.844 260.499 364.985 292.113 366.795C323.727 368.606 336.372 412.242 367.986 415.216C399.6 418.191 412.246 383.53 443.86 381.073C475.474 378.616 488.119 403.551 519.733 403.421C551.347 403.292 563.993 380.064 595.607 380.452C627.221 380.84 639.866 405.025 671.48 405.284C703.094 405.542 715.74 380.401 747.354 381.694C778.968 382.987 793.984 409.293 823.227 411.492C852.47 413.69 874.284 396.257 887.72 392.247" stroke="url(#paint40_linear_1693_16056)" stroke-width="1.24157" stroke-linecap="round"/>
<path d="M0 401.8C13.4359 402.964 35.2496 411.008 64.4925 407.387C93.7354 403.766 108.752 382.608 140.366 384.418C171.98 386.229 184.625 417.759 216.239 416.078C247.853 414.397 260.499 374.537 292.113 376.348C323.727 378.159 336.372 421.794 367.986 424.769C399.6 427.744 412.246 393.083 443.86 390.626C475.474 388.169 488.119 413.103 519.733 412.974C551.347 412.845 563.993 389.617 595.607 390.005C627.221 390.393 639.866 414.578 671.48 414.836C703.094 415.095 715.74 389.953 747.354 391.247C778.968 392.54 793.984 418.846 823.227 421.044C852.47 423.243 874.284 405.809 887.72 401.8" stroke="url(#paint41_linear_1693_16056)" stroke-width="1.24157" stroke-linecap="round"/>
<path d="M0 411.353C13.4359 412.517 35.2496 420.561 64.4925 416.94C93.7354 413.319 108.752 392.16 140.366 393.971C171.98 395.781 184.625 427.312 216.239 425.631C247.853 423.95 260.499 384.09 292.113 385.901C323.727 387.711 336.372 431.347 367.986 434.322C399.6 437.296 412.246 402.636 443.86 400.179C475.474 397.721 488.119 422.656 519.733 422.527C551.347 422.398 563.993 399.17 595.607 399.558C627.221 399.946 639.866 424.131 671.48 424.389C703.094 424.648 715.74 399.506 747.354 400.799C778.968 402.093 793.984 428.398 823.227 430.597C852.47 432.796 874.284 415.362 887.72 411.353" stroke="url(#paint42_linear_1693_16056)" stroke-width="1.24157" stroke-linecap="round"/>
<path d="M0 420.905C13.4359 422.069 35.2496 430.113 64.4925 426.492C93.7354 422.87 108.752 401.712 140.366 403.523C171.98 405.333 184.625 436.864 216.239 435.183C247.853 433.501 260.499 393.642 292.113 395.452C323.727 397.263 336.372 440.899 367.986 443.874C399.6 446.848 412.246 412.188 443.86 409.73C475.474 407.273 488.119 432.208 519.733 432.079C551.347 431.949 563.993 408.722 595.607 409.11C627.221 409.498 639.866 433.682 671.48 433.941C703.094 434.2 715.74 409.058 747.354 410.351C778.968 411.645 793.984 437.95 823.227 440.149C852.47 442.347 874.284 424.914 887.72 420.905" stroke="url(#paint43_linear_1693_16056)" stroke-width="1.24157" stroke-linecap="round"/>
<path d="M0 430.457C13.4359 431.621 35.2496 439.666 64.4925 436.044C93.7354 432.423 108.752 411.265 140.366 413.075C171.98 414.886 184.625 446.417 216.239 444.735C247.853 443.054 260.499 403.195 292.113 405.005C323.727 406.816 336.372 450.452 367.986 453.426C399.6 456.401 412.246 421.74 443.86 419.283C475.474 416.826 488.119 441.761 519.733 441.631C551.347 441.502 563.993 418.274 595.607 418.662C627.221 419.05 639.866 443.235 671.48 443.494C703.094 443.752 715.74 418.611 747.354 419.904C778.968 421.197 793.984 447.503 823.227 449.702C852.47 451.9 874.284 434.466 887.72 430.457" stroke="url(#paint44_linear_1693_16056)" stroke-width="1.24157" stroke-linecap="round"/>
<path d="M0 440.01C13.4359 441.174 35.2496 449.218 64.4925 445.597C93.7354 441.976 108.752 420.817 140.366 422.628C171.98 424.439 184.625 455.969 216.239 454.288C247.853 452.607 260.499 412.747 292.113 414.558C323.727 416.369 336.372 460.004 367.986 462.979C399.6 465.954 412.246 431.293 443.86 428.836C475.474 426.379 488.119 451.313 519.733 451.184C551.347 451.055 563.993 427.827 595.607 428.215C627.221 428.603 639.866 452.788 671.48 453.046C703.094 453.305 715.74 428.163 747.354 429.457C778.968 430.75 793.984 457.056 823.227 459.254C852.47 461.453 874.284 444.019 887.72 440.01" stroke="url(#paint45_linear_1693_16056)" stroke-width="1.24157" stroke-linecap="round"/>
<path d="M0 449.563C13.4359 450.727 35.2496 458.771 64.4925 455.15C93.7354 451.529 108.752 430.37 140.366 432.181C171.98 433.991 184.625 465.522 216.239 463.841C247.853 462.159 260.499 422.3 292.113 424.111C323.727 425.921 336.372 469.557 367.986 472.532C399.6 475.506 412.246 440.846 443.86 438.389C475.474 435.931 488.119 460.866 519.733 460.737C551.347 460.608 563.993 437.38 595.607 437.768C627.221 438.156 639.866 462.341 671.48 462.599C703.094 462.858 715.74 437.716 747.354 439.009C778.968 440.303 793.984 466.608 823.227 468.807C852.47 471.006 874.284 453.572 887.72 449.563" stroke="url(#paint46_linear_1693_16056)" stroke-width="1.24157" stroke-linecap="round"/>
<path d="M0 459.114C13.4359 460.278 35.2496 468.323 64.4925 464.702C93.7354 461.08 108.752 439.922 140.366 441.733C171.98 443.543 184.625 475.074 216.239 473.393C247.853 471.711 260.499 431.852 292.113 433.662C323.727 435.473 336.372 479.109 367.986 482.083C399.6 485.058 412.246 450.398 443.86 447.94C475.474 445.483 488.119 470.418 519.733 470.289C551.347 470.159 563.993 446.932 595.607 447.32C627.221 447.708 639.866 471.892 671.48 472.151C703.094 472.41 715.74 447.268 747.354 448.561C778.968 449.854 793.984 476.16 823.227 478.359C852.47 480.557 874.284 463.124 887.72 459.114" stroke="url(#paint47_linear_1693_16056)" stroke-width="1.24157" stroke-linecap="round"/>
<path d="M0 468.667C13.4359 469.831 35.2496 477.876 64.4925 474.254C93.7354 470.633 108.752 449.475 140.366 451.285C171.98 453.096 184.625 484.627 216.239 482.945C247.853 481.264 260.499 441.405 292.113 443.215C323.727 445.026 336.372 488.662 367.986 491.636C399.6 494.611 412.246 459.95 443.86 457.493C475.474 455.036 488.119 479.971 519.733 479.841C551.347 479.712 563.993 456.484 595.607 456.872C627.221 457.26 639.866 481.445 671.48 481.704C703.094 481.962 715.74 456.821 747.354 458.114C778.968 459.407 793.984 485.713 823.227 487.912C852.47 490.11 874.284 472.676 887.72 468.667" stroke="url(#paint48_linear_1693_16056)" stroke-width="1.24157" stroke-linecap="round"/>
<path d="M0 478.22C13.4359 479.384 35.2496 487.428 64.4925 483.807C93.7354 480.186 108.752 459.027 140.366 460.838C171.98 462.649 184.625 494.179 216.239 492.498C247.853 490.817 260.499 450.957 292.113 452.768C323.727 454.578 336.372 498.214 367.986 501.189C399.6 504.164 412.246 469.503 443.86 467.046C475.474 464.589 488.119 489.523 519.733 489.394C551.347 489.265 563.993 466.037 595.607 466.425C627.221 466.813 639.866 490.998 671.48 491.256C703.094 491.515 715.74 466.373 747.354 467.667C778.968 468.96 793.984 495.266 823.227 497.464C852.47 499.663 874.284 482.229 887.72 478.22" stroke="url(#paint49_linear_1693_16056)" stroke-width="1.24157" stroke-linecap="round"/>
<path d="M0 487.773C13.4359 488.937 35.2496 496.981 64.4925 493.36C93.7354 489.739 108.752 468.58 140.366 470.391C171.98 472.201 184.625 503.732 216.239 502.051C247.853 500.369 260.499 460.51 292.113 462.321C323.727 464.131 336.372 507.767 367.986 510.742C399.6 513.716 412.246 479.056 443.86 476.599C475.474 474.141 488.119 499.076 519.733 498.947C551.347 498.817 563.993 475.59 595.607 475.978C627.221 476.366 639.866 500.55 671.48 500.809C703.094 501.068 715.74 475.926 747.354 477.219C778.968 478.513 793.984 504.818 823.227 507.017C852.47 509.216 874.284 491.782 887.72 487.773" stroke="url(#paint50_linear_1693_16056)" stroke-width="1.24157" stroke-linecap="round"/>
<path d="M0 497.324C13.4359 498.488 35.2496 506.533 64.4925 502.912C93.7354 499.29 108.752 478.132 140.366 479.943C171.98 481.753 184.625 513.284 216.239 511.602C247.853 509.921 260.499 470.062 292.113 471.872C323.727 473.683 336.372 517.319 367.986 520.293C399.6 523.268 412.246 488.608 443.86 486.15C475.474 483.693 488.119 508.628 519.733 508.499C551.347 508.369 563.993 485.142 595.607 485.53C627.221 485.918 639.866 510.102 671.48 510.361C703.094 510.62 715.74 485.478 747.354 486.771C778.968 488.064 793.984 514.37 823.227 516.569C852.47 518.767 874.284 501.334 887.72 497.324" stroke="url(#paint51_linear_1693_16056)" stroke-width="1.24157" stroke-linecap="round"/>
<path d="M0 506.877C13.4359 508.041 35.2496 516.085 64.4925 512.464C93.7354 508.843 108.752 487.685 140.366 489.495C171.98 491.306 184.625 522.836 216.239 521.155C247.853 519.474 260.499 479.614 292.113 481.425C323.727 483.236 336.372 526.872 367.986 529.846C399.6 532.821 412.246 498.16 443.86 495.703C475.474 493.246 488.119 518.181 519.733 518.051C551.347 517.922 563.993 494.694 595.607 495.082C627.221 495.47 639.866 519.655 671.48 519.914C703.094 520.172 715.74 495.031 747.354 496.324C778.968 497.617 793.984 523.923 823.227 526.121C852.47 528.32 874.284 510.886 887.72 506.877" stroke="url(#paint52_linear_1693_16056)" stroke-width="1.24157" stroke-linecap="round"/>
<path d="M0 516.43C13.4359 517.594 35.2496 525.638 64.4925 522.017C93.7354 518.396 108.752 497.237 140.366 499.048C171.98 500.859 184.625 532.389 216.239 530.708C247.853 529.027 260.499 489.167 292.113 490.978C323.727 492.788 336.372 536.424 367.986 539.399C399.6 542.373 412.246 507.713 443.86 505.256C475.474 502.799 488.119 527.733 519.733 527.604C551.347 527.475 563.993 504.247 595.607 504.635C627.221 505.023 639.866 529.208 671.48 529.466C703.094 529.725 715.74 504.583 747.354 505.877C778.968 507.17 793.984 533.476 823.227 535.674C852.47 537.873 874.284 520.439 887.72 516.43" stroke="url(#paint53_linear_1693_16056)" stroke-width="1.24157" stroke-linecap="round"/>
<path d="M0 525.983C13.4359 527.147 35.2496 535.191 64.4925 531.57C93.7354 527.948 108.752 506.79 140.366 508.601C171.98 510.411 184.625 541.942 216.239 540.261C247.853 538.579 260.499 498.72 292.113 500.531C323.727 502.341 336.372 545.977 367.986 548.952C399.6 551.926 412.246 517.266 443.86 514.809C475.474 512.351 488.119 537.286 519.733 537.157C551.347 537.027 563.993 513.8 595.607 514.188C627.221 514.576 639.866 538.76 671.48 539.019C703.094 539.278 715.74 514.136 747.354 515.429C778.968 516.723 793.984 543.028 823.227 545.227C852.47 547.426 874.284 529.992 887.72 525.983" stroke="url(#paint54_linear_1693_16056)" stroke-width="1.24157" stroke-linecap="round"/>
<path d="M0 535.534C13.4359 536.698 35.2496 544.743 64.4925 541.121C93.7354 537.5 108.752 516.342 140.366 518.152C171.98 519.963 184.625 551.494 216.239 549.812C247.853 548.131 260.499 508.272 292.113 510.082C323.727 511.893 336.372 555.529 367.986 558.503C399.6 561.478 412.246 526.818 443.86 524.36C475.474 521.903 488.119 546.838 519.733 546.709C551.347 546.579 563.993 523.352 595.607 523.74C627.221 524.128 639.866 548.312 671.48 548.571C703.094 548.83 715.74 523.688 747.354 524.981C778.968 526.274 793.984 552.58 823.227 554.779C852.47 556.977 874.284 539.544 887.72 535.534" stroke="url(#paint55_linear_1693_16056)" stroke-width="1.24157" stroke-linecap="round"/>
<path d="M0 545.087C13.4359 546.251 35.2496 554.295 64.4925 550.674C93.7354 547.053 108.752 525.895 140.366 527.705C171.98 529.516 184.625 561.046 216.239 559.365C247.853 557.684 260.499 517.824 292.113 519.635C323.727 521.446 336.372 565.082 367.986 568.056C399.6 571.031 412.246 536.37 443.86 533.913C475.474 531.456 488.119 556.391 519.733 556.261C551.347 556.132 563.993 532.904 595.607 533.292C627.221 533.68 639.866 557.865 671.48 558.124C703.094 558.382 715.74 533.241 747.354 534.534C778.968 535.827 793.984 562.133 823.227 564.331C852.47 566.53 874.284 549.096 887.72 545.087" stroke="url(#paint56_linear_1693_16056)" stroke-width="1.24157" stroke-linecap="round"/>
<path d="M0 554.64C13.4359 555.804 35.2496 563.848 64.4925 560.227C93.7354 556.606 108.752 535.447 140.366 537.258C171.98 539.069 184.625 570.599 216.239 568.918C247.853 567.237 260.499 527.377 292.113 529.188C323.727 530.998 336.372 574.634 367.986 577.609C399.6 580.583 412.246 545.923 443.86 543.466C475.474 541.009 488.119 565.943 519.733 565.814C551.347 565.685 563.993 542.457 595.607 542.845C627.221 543.233 639.866 567.418 671.48 567.676C703.094 567.935 715.74 542.793 747.354 544.087C778.968 545.38 793.984 571.686 823.227 573.884C852.47 576.083 874.284 558.649 887.72 554.64" stroke="url(#paint57_linear_1693_16056)" stroke-width="1.24157" stroke-linecap="round"/>
<path d="M0 564.193C13.4359 565.357 35.2496 573.401 64.4925 569.78C93.7354 566.158 108.752 545 140.366 546.811C171.98 548.621 184.625 580.152 216.239 578.471C247.853 576.789 260.499 536.93 292.113 538.741C323.727 540.551 336.372 584.187 367.986 587.162C399.6 590.136 412.246 555.476 443.86 553.019C475.474 550.561 488.119 575.496 519.733 575.367C551.347 575.237 563.993 552.01 595.607 552.398C627.221 552.786 639.866 576.97 671.48 577.229C703.094 577.488 715.74 552.346 747.354 553.639C778.968 554.933 793.984 581.238 823.227 583.437C852.47 585.636 874.284 568.202 887.72 564.193" stroke="url(#paint58_linear_1693_16056)" stroke-width="1.24157" stroke-linecap="round"/>
<path d="M0 573.744C13.4359 574.908 35.2496 582.953 64.4925 579.331C93.7354 575.71 108.752 554.552 140.366 556.362C171.98 558.173 184.625 589.704 216.239 588.022C247.853 586.341 260.499 546.482 292.113 548.292C323.727 550.103 336.372 593.739 367.986 596.713C399.6 599.688 412.246 565.028 443.86 562.57C475.474 560.113 488.119 585.048 519.733 584.918C551.347 584.789 563.993 561.562 595.607 561.95C627.221 562.337 639.866 586.522 671.48 586.781C703.094 587.039 715.74 561.898 747.354 563.191C778.968 564.484 793.984 590.79 823.227 592.989C852.47 595.187 874.284 577.754 887.72 573.744" stroke="url(#paint59_linear_1693_16056)" stroke-width="1.24157" stroke-linecap="round"/>
<path d="M0 583.297C13.4359 584.461 35.2496 592.505 64.4925 588.884C93.7354 585.263 108.752 564.105 140.366 565.915C171.98 567.726 184.625 599.256 216.239 597.575C247.853 595.894 260.499 556.034 292.113 557.845C323.727 559.656 336.372 603.292 367.986 606.266C399.6 609.241 412.246 574.58 443.86 572.123C475.474 569.666 488.119 594.601 519.733 594.471C551.347 594.342 563.993 571.114 595.607 571.502C627.221 571.89 639.866 596.075 671.48 596.334C703.094 596.592 715.74 571.451 747.354 572.744C778.968 574.037 793.984 600.343 823.227 602.541C852.47 604.74 874.284 587.306 887.72 583.297" stroke="url(#paint60_linear_1693_16056)" stroke-width="1.24157" stroke-linecap="round"/>
<path d="M0 592.85C13.4359 594.014 35.2496 602.058 64.4925 598.437C93.7354 594.816 108.752 573.657 140.366 575.468C171.98 577.279 184.625 608.809 216.239 607.128C247.853 605.447 260.499 565.587 292.113 567.398C323.727 569.208 336.372 612.844 367.986 615.819C399.6 618.793 412.246 584.133 443.86 581.676C475.474 579.218 488.119 604.153 519.733 604.024C551.347 603.895 563.993 580.667 595.607 581.055C627.221 581.443 639.866 605.628 671.48 605.886C703.094 606.145 715.74 581.003 747.354 582.297C778.968 583.59 793.984 609.896 823.227 612.094C852.47 614.293 874.284 596.859 887.72 592.85" stroke="url(#paint61_linear_1693_16056)" stroke-width="1.24157" stroke-linecap="round"/>
<path d="M0 602.403C13.4359 603.567 35.2496 611.611 64.4925 607.99C93.7354 604.368 108.752 583.21 140.366 585.021C171.98 586.831 184.625 618.362 216.239 616.681C247.853 614.999 260.499 575.14 292.113 576.95C323.727 578.761 336.372 622.397 367.986 625.372C399.6 628.346 412.246 593.686 443.86 591.228C475.474 588.771 488.119 613.706 519.733 613.577C551.347 613.447 563.993 590.22 595.607 590.608C627.221 590.996 639.866 615.18 671.48 615.439C703.094 615.698 715.74 590.556 747.354 591.849C778.968 593.143 793.984 619.448 823.227 621.647C852.47 623.845 874.284 606.412 887.72 602.403" stroke="url(#paint62_linear_1693_16056)" stroke-width="1.24157" stroke-linecap="round"/>
<path d="M0 611.954C13.4359 613.118 35.2496 621.163 64.4925 617.541C93.7354 613.92 108.752 592.762 140.366 594.572C171.98 596.383 184.625 627.914 216.239 626.232C247.853 624.551 260.499 584.692 292.113 586.502C323.727 588.313 336.372 631.949 367.986 634.923C399.6 637.898 412.246 603.238 443.86 600.78C475.474 598.323 488.119 623.258 519.733 623.128C551.347 622.999 563.993 599.771 595.607 600.159C627.221 600.547 639.866 624.732 671.48 624.991C703.094 625.249 715.74 600.108 747.354 601.401C778.968 602.694 793.984 629 823.227 631.199C852.47 633.397 874.284 615.964 887.72 611.954" stroke="url(#paint63_linear_1693_16056)" stroke-width="1.24157" stroke-linecap="round"/>
<path d="M0 621.507C13.4359 622.671 35.2496 630.715 64.4925 627.094C93.7354 623.473 108.752 602.315 140.366 604.125C171.98 605.936 184.625 637.466 216.239 635.785C247.853 634.104 260.499 594.244 292.113 596.055C323.727 597.866 336.372 641.501 367.986 644.476C399.6 647.451 412.246 612.79 443.86 610.333C475.474 607.876 488.119 632.811 519.733 632.681C551.347 632.552 563.993 609.324 595.607 609.712C627.221 610.1 639.866 634.285 671.48 634.544C703.094 634.802 715.74 609.66 747.354 610.954C778.968 612.247 793.984 638.553 823.227 640.751C852.47 642.95 874.284 625.516 887.72 621.507" stroke="url(#paint64_linear_1693_16056)" stroke-width="1.24157" stroke-linecap="round"/>
<path d="M0 631.06C13.4359 632.224 35.2496 640.268 64.4925 636.647C93.7354 633.026 108.752 611.867 140.366 613.678C171.98 615.489 184.625 647.019 216.239 645.338C247.853 643.657 260.499 603.797 292.113 605.608C323.727 607.418 336.372 651.054 367.986 654.029C399.6 657.003 412.246 622.343 443.86 619.886C475.474 617.428 488.119 642.363 519.733 642.234C551.347 642.105 563.993 618.877 595.607 619.265C627.221 619.653 639.866 643.838 671.48 644.096C703.094 644.355 715.74 619.213 747.354 620.506C778.968 621.8 793.984 648.105 823.227 650.304C852.47 652.503 874.284 635.069 887.72 631.06" stroke="url(#paint65_linear_1693_16056)" stroke-width="1.24157" stroke-linecap="round"/>
<path d="M0 640.613C13.4359 641.777 35.2496 649.821 64.4925 646.2C93.7354 642.578 108.752 621.42 140.366 623.231C171.98 625.041 184.625 656.572 216.239 654.891C247.853 653.209 260.499 613.35 292.113 615.16C323.727 616.971 336.372 660.607 367.986 663.582C399.6 666.556 412.246 631.896 443.86 629.438C475.474 626.981 488.119 651.916 519.733 651.787C551.347 651.657 563.993 628.43 595.607 628.818C627.221 629.206 639.866 653.39 671.48 653.649C703.094 653.908 715.74 628.766 747.354 630.059C778.968 631.353 793.984 657.658 823.227 659.857C852.47 662.055 874.284 644.622 887.72 640.613" stroke="url(#paint66_linear_1693_16056)" stroke-width="1.24157" stroke-linecap="round"/>
<path d="M0 650.164C13.4359 651.328 35.2496 659.373 64.4925 655.751C93.7354 652.13 108.752 630.972 140.366 632.782C171.98 634.593 184.625 666.124 216.239 664.442C247.853 662.761 260.499 622.902 292.113 624.712C323.727 626.523 336.372 670.159 367.986 673.133C399.6 676.108 412.246 641.447 443.86 638.99C475.474 636.533 488.119 661.468 519.733 661.338C551.347 661.209 563.993 637.981 595.607 638.369C627.221 638.757 639.866 662.942 671.48 663.201C703.094 663.459 715.74 638.318 747.354 639.611C778.968 640.904 793.984 667.21 823.227 669.409C852.47 671.607 874.284 654.174 887.72 650.164" stroke="url(#paint67_linear_1693_16056)" stroke-width="1.24157" stroke-linecap="round"/>
<path d="M0 659.717C13.4359 660.881 35.2496 668.925 64.4925 665.304C93.7354 661.683 108.752 640.524 140.366 642.335C171.98 644.146 184.625 675.676 216.239 673.995C247.853 672.314 260.499 632.454 292.113 634.265C323.727 636.076 336.372 679.711 367.986 682.686C399.6 685.661 412.246 651 443.86 648.543C475.474 646.086 488.119 671.02 519.733 670.891C551.347 670.762 563.993 647.534 595.607 647.922C627.221 648.31 639.866 672.495 671.48 672.753C703.094 673.012 715.74 647.87 747.354 649.164C778.968 650.457 793.984 676.763 823.227 678.961C852.47 681.16 874.284 663.726 887.72 659.717" stroke="url(#paint68_linear_1693_16056)" stroke-width="1.24157" stroke-linecap="round"/>
<path d="M0 669.27C13.4359 670.434 35.2496 678.478 64.4925 674.857C93.7354 671.236 108.752 650.077 140.366 651.888C171.98 653.698 184.625 685.229 216.239 683.548C247.853 681.866 260.499 642.007 292.113 643.818C323.727 645.628 336.372 689.264 367.986 692.239C399.6 695.213 412.246 660.553 443.86 658.096C475.474 655.638 488.119 680.573 519.733 680.444C551.347 680.315 563.993 657.087 595.607 657.475C627.221 657.863 639.866 682.048 671.48 682.306C703.094 682.565 715.74 657.423 747.354 658.716C778.968 660.01 793.984 686.315 823.227 688.514C852.47 690.713 874.284 673.279 887.72 669.27" stroke="url(#paint69_linear_1693_16056)" stroke-width="1.24157" stroke-linecap="round"/>
<path d="M0 678.823C13.4359 679.986 35.2496 688.031 64.4925 684.41C93.7354 680.788 108.752 659.63 140.366 661.441C171.98 663.251 184.625 694.782 216.239 693.101C247.853 691.419 260.499 651.56 292.113 653.37C323.727 655.181 336.372 698.817 367.986 701.791C399.6 704.766 412.246 670.106 443.86 667.648C475.474 665.191 488.119 690.126 519.733 689.997C551.347 689.867 563.993 666.64 595.607 667.028C627.221 667.416 639.866 691.6 671.48 691.859C703.094 692.118 715.74 666.976 747.354 668.269C778.968 669.562 793.984 695.868 823.227 698.067C852.47 700.265 874.284 682.832 887.72 678.823" stroke="url(#paint70_linear_1693_16056)" stroke-width="1.24157" stroke-linecap="round"/>
<path d="M0 688.374C13.4359 689.538 35.2496 697.583 64.4925 693.961C93.7354 690.34 108.752 669.182 140.366 670.992C171.98 672.803 184.625 704.334 216.239 702.652C247.853 700.971 260.499 661.112 292.113 662.922C323.727 664.733 336.372 708.369 367.986 711.343C399.6 714.318 412.246 679.657 443.86 677.2C475.474 674.743 488.119 699.678 519.733 699.548C551.347 699.419 563.993 676.191 595.607 676.579C627.221 676.967 639.866 701.152 671.48 701.411C703.094 701.669 715.74 676.528 747.354 677.821C778.968 679.114 793.984 705.42 823.227 707.619C852.47 709.817 874.284 692.383 887.72 688.374" stroke="url(#paint71_linear_1693_16056)" stroke-width="1.24157" stroke-linecap="round"/>
<path d="M0 697.927C13.4359 699.091 35.2496 707.135 64.4925 703.514C93.7354 699.893 108.752 678.734 140.366 680.545C171.98 682.356 184.625 713.886 216.239 712.205C247.853 710.524 260.499 670.664 292.113 672.475C323.727 674.286 336.372 717.921 367.986 720.896C399.6 723.871 412.246 689.21 443.86 686.753C475.474 684.296 488.119 709.23 519.733 709.101C551.347 708.972 563.993 685.744 595.607 686.132C627.221 686.52 639.866 710.705 671.48 710.963C703.094 711.222 715.74 686.08 747.354 687.374C778.968 688.667 793.984 714.973 823.227 717.171C852.47 719.37 874.284 701.936 887.72 697.927" stroke="url(#paint72_linear_1693_16056)" stroke-width="1.24157" stroke-linecap="round"/>
<path d="M0 707.48C13.4359 708.644 35.2496 716.688 64.4925 713.067C93.7354 709.446 108.752 688.287 140.366 690.098C171.98 691.908 184.625 723.439 216.239 721.758C247.853 720.076 260.499 680.217 292.113 682.028C323.727 683.838 336.372 727.474 367.986 730.449C399.6 733.423 412.246 698.763 443.86 696.306C475.474 693.848 488.119 718.783 519.733 718.654C551.347 718.525 563.993 695.297 595.607 695.685C627.221 696.073 639.866 720.258 671.48 720.516C703.094 720.775 715.74 695.633 747.354 696.926C778.968 698.22 793.984 724.525 823.227 726.724C852.47 728.923 874.284 711.489 887.72 707.48" stroke="url(#paint73_linear_1693_16056)" stroke-width="1.24157" stroke-linecap="round"/>
<path d="M0 717.032C13.4359 718.196 35.2496 726.241 64.4925 722.62C93.7354 718.998 108.752 697.84 140.366 699.651C171.98 701.461 184.625 732.992 216.239 731.31C247.853 729.629 260.499 689.77 292.113 691.58C323.727 693.391 336.372 737.027 367.986 740.001C399.6 742.976 412.246 708.316 443.86 705.858C475.474 703.401 488.119 728.336 519.733 728.207C551.347 728.077 563.993 704.85 595.607 705.238C627.221 705.626 639.866 729.81 671.48 730.069C703.094 730.328 715.74 705.186 747.354 706.479C778.968 707.772 793.984 734.078 823.227 736.277C852.47 738.475 874.284 721.042 887.72 717.032" stroke="url(#paint74_linear_1693_16056)" stroke-width="1.24157" stroke-linecap="round"/>
<path d="M0 726.584C13.4359 727.748 35.2496 735.793 64.4925 732.171C93.7354 728.55 108.752 707.392 140.366 709.202C171.98 711.013 184.625 742.544 216.239 740.862C247.853 739.181 260.499 699.321 292.113 701.132C323.727 702.943 336.372 746.579 367.986 749.553C399.6 752.528 412.246 717.867 443.86 715.41C475.474 712.953 488.119 737.888 519.733 737.758C551.347 737.629 563.993 714.401 595.607 714.789C627.221 715.177 639.866 739.362 671.48 739.621C703.094 739.879 715.74 714.738 747.354 716.031C778.968 717.324 793.984 743.63 823.227 745.829C852.47 748.027 874.284 730.593 887.72 726.584" stroke="url(#paint75_linear_1693_16056)" stroke-width="1.24157" stroke-linecap="round"/>
<path d="M0 736.137C13.4359 737.301 35.2496 745.345 64.4925 741.724C93.7354 738.103 108.752 716.944 140.366 718.755C171.98 720.566 184.625 752.096 216.239 750.415C247.853 748.734 260.499 708.874 292.113 710.685C323.727 712.495 336.372 756.131 367.986 759.106C399.6 762.081 412.246 727.42 443.86 724.963C475.474 722.506 488.119 747.44 519.733 747.311C551.347 747.182 563.993 723.954 595.607 724.342C627.221 724.73 639.866 748.915 671.48 749.173C703.094 749.432 715.74 724.29 747.354 725.584C778.968 726.877 793.984 753.183 823.227 755.381C852.47 757.58 874.284 740.146 887.72 736.137" stroke="url(#paint76_linear_1693_16056)" stroke-width="1.24157" stroke-linecap="round"/>
<path d="M0 745.69C13.4359 746.854 35.2496 754.898 64.4925 751.277C93.7354 747.656 108.752 726.497 140.366 728.308C171.98 730.118 184.625 761.649 216.239 759.968C247.853 758.286 260.499 718.427 292.113 720.238C323.727 722.048 336.372 765.684 367.986 768.659C399.6 771.633 412.246 736.973 443.86 734.516C475.474 732.058 488.119 756.993 519.733 756.864C551.347 756.734 563.993 733.507 595.607 733.895C627.221 734.283 639.866 758.467 671.48 758.726C703.094 758.985 715.74 733.843 747.354 735.136C778.968 736.43 793.984 762.735 823.227 764.934C852.47 767.133 874.284 749.699 887.72 745.69" stroke="url(#paint77_linear_1693_16056)" stroke-width="1.24157" stroke-linecap="round"/>
<path d="M0 755.242C13.4359 756.406 35.2496 764.451 64.4925 760.829C93.7354 757.208 108.752 736.05 140.366 737.861C171.98 739.671 184.625 771.202 216.239 769.52C247.853 767.839 260.499 727.98 292.113 729.79C323.727 731.601 336.372 775.237 367.986 778.211C399.6 781.186 412.246 746.526 443.86 744.068C475.474 741.611 488.119 766.546 519.733 766.417C551.347 766.287 563.993 743.06 595.607 743.448C627.221 743.836 639.866 768.02 671.48 768.279C703.094 768.538 715.74 743.396 747.354 744.689C778.968 745.982 793.984 772.288 823.227 774.487C852.47 776.685 874.284 759.252 887.72 755.242" stroke="url(#paint78_linear_1693_16056)" stroke-width="1.24157" stroke-linecap="round"/>
<path d="M0 764.794C13.4359 765.958 35.2496 774.002 64.4925 770.381C93.7354 766.76 108.752 745.602 140.366 747.412C171.98 749.223 184.625 780.753 216.239 779.072C247.853 777.391 260.499 737.531 292.113 739.342C323.727 741.153 336.372 784.789 367.986 787.763C399.6 790.738 412.246 756.077 443.86 753.62C475.474 751.163 488.119 776.098 519.733 775.968C551.347 775.839 563.993 752.611 595.607 752.999C627.221 753.387 639.866 777.572 671.48 777.831C703.094 778.089 715.74 752.948 747.354 754.241C778.968 755.534 793.984 781.84 823.227 784.038C852.47 786.237 874.284 768.803 887.72 764.794" stroke="url(#paint79_linear_1693_16056)" stroke-width="1.24157" stroke-linecap="round"/>
<path d="M0 774.347C13.4359 775.511 35.2496 783.555 64.4925 779.934C93.7354 776.313 108.752 755.154 140.366 756.965C171.98 758.776 184.625 790.306 216.239 788.625C247.853 786.944 260.499 747.084 292.113 748.895C323.727 750.705 336.372 794.341 367.986 797.316C399.6 800.29 412.246 765.63 443.86 763.173C475.474 760.716 488.119 785.65 519.733 785.521C551.347 785.392 563.993 762.164 595.607 762.552C627.221 762.94 639.866 787.125 671.48 787.383C703.094 787.642 715.74 762.5 747.354 763.794C778.968 765.087 793.984 791.393 823.227 793.591C852.47 795.79 874.284 778.356 887.72 774.347" stroke="url(#paint80_linear_1693_16056)" stroke-width="1.24157" stroke-linecap="round"/>
<path d="M0 783.9C13.4359 785.064 35.2496 793.108 64.4925 789.487C93.7354 785.865 108.752 764.707 140.366 766.518C171.98 768.328 184.625 799.859 216.239 798.178C247.853 796.496 260.499 756.637 292.113 758.448C323.727 760.258 336.372 803.894 367.986 806.869C399.6 809.843 412.246 775.183 443.86 772.726C475.474 770.268 488.119 795.203 519.733 795.074C551.347 794.944 563.993 771.717 595.607 772.105C627.221 772.493 639.866 796.677 671.48 796.936C703.094 797.195 715.74 772.053 747.354 773.346C778.968 774.64 793.984 800.945 823.227 803.144C852.47 805.343 874.284 787.909 887.72 783.9" stroke="url(#paint81_linear_1693_16056)" stroke-width="1.24157" stroke-linecap="round"/>
<path d="M0 793.452C13.4359 794.616 35.2496 802.661 64.4925 799.039C93.7354 795.418 108.752 774.26 140.366 776.07C171.98 777.881 184.625 809.412 216.239 807.73C247.853 806.049 260.499 766.19 292.113 768C323.727 769.811 336.372 813.447 367.986 816.421C399.6 819.396 412.246 784.736 443.86 782.278C475.474 779.821 488.119 804.756 519.733 804.626C551.347 804.497 563.993 781.27 595.607 781.658C627.221 782.045 639.866 806.23 671.48 806.489C703.094 806.747 715.74 781.606 747.354 782.899C778.968 784.192 793.984 810.498 823.227 812.697C852.47 814.895 874.284 797.462 887.72 793.452" stroke="url(#paint82_linear_1693_16056)" stroke-width="1.24157" stroke-linecap="round"/>
<path d="M0 803.004C13.4359 804.168 35.2496 812.212 64.4925 808.591C93.7354 804.97 108.752 783.812 140.366 785.622C171.98 787.433 184.625 818.963 216.239 817.282C247.853 815.601 260.499 775.741 292.113 777.552C323.727 779.363 336.372 822.999 367.986 825.973C399.6 828.948 412.246 794.287 443.86 791.83C475.474 789.373 488.119 814.308 519.733 814.178C551.347 814.049 563.993 790.821 595.607 791.209C627.221 791.597 639.866 815.782 671.48 816.041C703.094 816.299 715.74 791.158 747.354 792.451C778.968 793.744 793.984 820.05 823.227 822.248C852.47 824.447 874.284 807.013 887.72 803.004" stroke="url(#paint83_linear_1693_16056)" stroke-width="1.24157" stroke-linecap="round"/>
<path d="M0 812.557C13.4359 813.721 35.2496 821.765 64.4925 818.144C93.7354 814.523 108.752 793.364 140.366 795.175C171.98 796.986 184.625 828.516 216.239 826.835C247.853 825.154 260.499 785.294 292.113 787.105C323.727 788.915 336.372 832.551 367.986 835.526C399.6 838.5 412.246 803.84 443.86 801.383C475.474 798.926 488.119 823.86 519.733 823.731C551.347 823.602 563.993 800.374 595.607 800.762C627.221 801.15 639.866 825.335 671.48 825.593C703.094 825.852 715.74 800.71 747.354 802.004C778.968 803.297 793.984 829.603 823.227 831.801C852.47 834 874.284 816.566 887.72 812.557" stroke="url(#paint84_linear_1693_16056)" stroke-width="1.24157" stroke-linecap="round"/>
<path d="M0 822.11C13.4359 823.274 35.2496 831.318 64.4925 827.697C93.7354 824.075 108.752 802.917 140.366 804.728C171.98 806.538 184.625 838.069 216.239 836.388C247.853 834.706 260.499 794.847 292.113 796.658C323.727 798.468 336.372 842.104 367.986 845.079C399.6 848.053 412.246 813.393 443.86 810.936C475.474 808.478 488.119 833.413 519.733 833.284C551.347 833.154 563.993 809.927 595.607 810.315C627.221 810.703 639.866 834.887 671.48 835.146C703.094 835.405 715.74 810.263 747.354 811.556C778.968 812.85 793.984 839.155 823.227 841.354C852.47 843.553 874.284 826.119 887.72 822.11" stroke="url(#paint85_linear_1693_16056)" stroke-width="1.24157" stroke-linecap="round"/>
<path d="M0 831.662C13.4359 832.826 35.2496 840.871 64.4925 837.249C93.7354 833.628 108.752 812.47 140.366 814.28C171.98 816.091 184.625 847.622 216.239 845.94C247.853 844.259 260.499 804.4 292.113 806.21C323.727 808.021 336.372 851.657 367.986 854.631C399.6 857.606 412.246 822.946 443.86 820.488C475.474 818.031 488.119 842.966 519.733 842.836C551.347 842.707 563.993 819.479 595.607 819.867C627.221 820.255 639.866 844.44 671.48 844.699C703.094 844.957 715.74 819.816 747.354 821.109C778.968 822.402 793.984 848.708 823.227 850.907C852.47 853.105 874.284 835.672 887.72 831.662" stroke="url(#paint86_linear_1693_16056)" stroke-width="1.24157" stroke-linecap="round"/>
<path d="M0 841.214C13.4359 842.378 35.2496 850.422 64.4925 846.801C93.7354 843.18 108.752 822.022 140.366 823.832C171.98 825.643 184.625 857.173 216.239 855.492C247.853 853.811 260.499 813.951 292.113 815.762C323.727 817.573 336.372 861.208 367.986 864.183C399.6 867.158 412.246 832.497 443.86 830.04C475.474 827.583 488.119 852.518 519.733 852.388C551.347 852.259 563.993 829.031 595.607 829.419C627.221 829.807 639.866 853.992 671.48 854.251C703.094 854.509 715.74 829.367 747.354 830.661C778.968 831.954 793.984 858.26 823.227 860.458C852.47 862.657 874.284 845.223 887.72 841.214" stroke="url(#paint87_linear_1693_16056)" stroke-width="1.24157" stroke-linecap="round"/>
</g>
<defs>
<linearGradient id="paint0_linear_1693_16056" x1="-46.7719" y1="-24212.8" x2="8874.56" y2="-24212.8" gradientUnits="userSpaceOnUse">
<stop stop-color="#F1F1F1"/>
<stop offset="1" stop-color="#D9D9D9"/>
</linearGradient>
<linearGradient id="paint1_linear_1693_16056" x1="-46.7719" y1="-24203.3" x2="8874.56" y2="-24203.3" gradientUnits="userSpaceOnUse">
<stop stop-color="#F1F1F1"/>
<stop offset="1" stop-color="#D9D9D9"/>
</linearGradient>
<linearGradient id="paint2_linear_1693_16056" x1="-46.7719" y1="-24193.7" x2="8874.56" y2="-24193.7" gradientUnits="userSpaceOnUse">
<stop stop-color="#F1F1F1"/>
<stop offset="1" stop-color="#D9D9D9"/>
</linearGradient>
<linearGradient id="paint3_linear_1693_16056" x1="-46.7719" y1="-24184.2" x2="8874.56" y2="-24184.2" gradientUnits="userSpaceOnUse">
<stop stop-color="#F1F1F1"/>
<stop offset="1" stop-color="#D9D9D9"/>
</linearGradient>
<linearGradient id="paint4_linear_1693_16056" x1="-46.7719" y1="-24174.6" x2="8874.56" y2="-24174.6" gradientUnits="userSpaceOnUse">
<stop stop-color="#F1F1F1"/>
<stop offset="1" stop-color="#D9D9D9"/>
</linearGradient>
<linearGradient id="paint5_linear_1693_16056" x1="-46.7719" y1="-24165" x2="8874.56" y2="-24165" gradientUnits="userSpaceOnUse">
<stop stop-color="#F1F1F1"/>
<stop offset="1" stop-color="#D9D9D9"/>
</linearGradient>
<linearGradient id="paint6_linear_1693_16056" x1="-46.7719" y1="-24155.5" x2="8874.56" y2="-24155.5" gradientUnits="userSpaceOnUse">
<stop stop-color="#F1F1F1"/>
<stop offset="1" stop-color="#D9D9D9"/>
</linearGradient>
<linearGradient id="paint7_linear_1693_16056" x1="-46.7719" y1="-24145.9" x2="8874.56" y2="-24145.9" gradientUnits="userSpaceOnUse">
<stop stop-color="#F1F1F1"/>
<stop offset="1" stop-color="#D9D9D9"/>
</linearGradient>
<linearGradient id="paint8_linear_1693_16056" x1="-46.7719" y1="-24136.4" x2="8874.56" y2="-24136.4" gradientUnits="userSpaceOnUse">
<stop stop-color="#F1F1F1"/>
<stop offset="1" stop-color="#D9D9D9"/>
</linearGradient>
<linearGradient id="paint9_linear_1693_16056" x1="-46.7719" y1="-24126.8" x2="8874.56" y2="-24126.8" gradientUnits="userSpaceOnUse">
<stop stop-color="#F1F1F1"/>
<stop offset="1" stop-color="#D9D9D9"/>
</linearGradient>
<linearGradient id="paint10_linear_1693_16056" x1="-46.7719" y1="-24117.3" x2="8874.56" y2="-24117.3" gradientUnits="userSpaceOnUse">
<stop stop-color="#F1F1F1"/>
<stop offset="1" stop-color="#D9D9D9"/>
</linearGradient>
<linearGradient id="paint11_linear_1693_16056" x1="-46.7719" y1="-24107.7" x2="8874.56" y2="-24107.7" gradientUnits="userSpaceOnUse">
<stop stop-color="#F1F1F1"/>
<stop offset="1" stop-color="#D9D9D9"/>
</linearGradient>
<linearGradient id="paint12_linear_1693_16056" x1="-46.7719" y1="-24098.2" x2="8874.56" y2="-24098.2" gradientUnits="userSpaceOnUse">
<stop stop-color="#F1F1F1"/>
<stop offset="1" stop-color="#D9D9D9"/>
</linearGradient>
<linearGradient id="paint13_linear_1693_16056" x1="-46.7719" y1="-24088.6" x2="8874.56" y2="-24088.6" gradientUnits="userSpaceOnUse">
<stop stop-color="#F1F1F1"/>
<stop offset="1" stop-color="#D9D9D9"/>
</linearGradient>
<linearGradient id="paint14_linear_1693_16056" x1="-46.7719" y1="-24079.1" x2="8874.56" y2="-24079.1" gradientUnits="userSpaceOnUse">
<stop stop-color="#F1F1F1"/>
<stop offset="1" stop-color="#D9D9D9"/>
</linearGradient>
<linearGradient id="paint15_linear_1693_16056" x1="-46.7719" y1="-24069.5" x2="8874.56" y2="-24069.5" gradientUnits="userSpaceOnUse">
<stop stop-color="#F1F1F1"/>
<stop offset="1" stop-color="#D9D9D9"/>
</linearGradient>
<linearGradient id="paint16_linear_1693_16056" x1="-46.7719" y1="-24060" x2="8874.56" y2="-24060" gradientUnits="userSpaceOnUse">
<stop stop-color="#F1F1F1"/>
<stop offset="1" stop-color="#D9D9D9"/>
</linearGradient>
<linearGradient id="paint17_linear_1693_16056" x1="-46.7719" y1="-24050.4" x2="8874.56" y2="-24050.4" gradientUnits="userSpaceOnUse">
<stop stop-color="#F1F1F1"/>
<stop offset="1" stop-color="#D9D9D9"/>
</linearGradient>
<linearGradient id="paint18_linear_1693_16056" x1="-46.7719" y1="-24040.9" x2="8874.56" y2="-24040.9" gradientUnits="userSpaceOnUse">
<stop stop-color="#F1F1F1"/>
<stop offset="1" stop-color="#D9D9D9"/>
</linearGradient>
<linearGradient id="paint19_linear_1693_16056" x1="-46.7719" y1="-24031.3" x2="8874.56" y2="-24031.3" gradientUnits="userSpaceOnUse">
<stop stop-color="#F1F1F1"/>
<stop offset="1" stop-color="#D9D9D9"/>
</linearGradient>
<linearGradient id="paint20_linear_1693_16056" x1="-46.7719" y1="-24021.8" x2="8874.56" y2="-24021.8" gradientUnits="userSpaceOnUse">
<stop stop-color="#F1F1F1"/>
<stop offset="1" stop-color="#D9D9D9"/>
</linearGradient>
<linearGradient id="paint21_linear_1693_16056" x1="-46.7719" y1="-24012.2" x2="8874.56" y2="-24012.2" gradientUnits="userSpaceOnUse">
<stop stop-color="#F1F1F1"/>
<stop offset="1" stop-color="#D9D9D9"/>
</linearGradient>
<linearGradient id="paint22_linear_1693_16056" x1="-46.7719" y1="-24002.7" x2="8874.56" y2="-24002.7" gradientUnits="userSpaceOnUse">
<stop stop-color="#F1F1F1"/>
<stop offset="1" stop-color="#D9D9D9"/>
</linearGradient>
<linearGradient id="paint23_linear_1693_16056" x1="-46.7719" y1="-23993.1" x2="8874.56" y2="-23993.1" gradientUnits="userSpaceOnUse">
<stop stop-color="#F1F1F1"/>
<stop offset="1" stop-color="#D9D9D9"/>
</linearGradient>
<linearGradient id="paint24_linear_1693_16056" x1="-46.7719" y1="-23983.6" x2="8874.56" y2="-23983.6" gradientUnits="userSpaceOnUse">
<stop stop-color="#F1F1F1"/>
<stop offset="1" stop-color="#D9D9D9"/>
</linearGradient>
<linearGradient id="paint25_linear_1693_16056" x1="-46.7719" y1="-23974" x2="8874.56" y2="-23974" gradientUnits="userSpaceOnUse">
<stop stop-color="#F1F1F1"/>
<stop offset="1" stop-color="#D9D9D9"/>
</linearGradient>
<linearGradient id="paint26_linear_1693_16056" x1="-46.7719" y1="-23964.4" x2="8874.56" y2="-23964.4" gradientUnits="userSpaceOnUse">
<stop stop-color="#F1F1F1"/>
<stop offset="1" stop-color="#D9D9D9"/>
</linearGradient>
<linearGradient id="paint27_linear_1693_16056" x1="-46.7719" y1="-23954.9" x2="8874.56" y2="-23954.9" gradientUnits="userSpaceOnUse">
<stop stop-color="#F1F1F1"/>
<stop offset="1" stop-color="#D9D9D9"/>
</linearGradient>
<linearGradient id="paint28_linear_1693_16056" x1="-46.7719" y1="-23945.3" x2="8874.56" y2="-23945.3" gradientUnits="userSpaceOnUse">
<stop stop-color="#F1F1F1"/>
<stop offset="1" stop-color="#D9D9D9"/>
</linearGradient>
<linearGradient id="paint29_linear_1693_16056" x1="-46.7719" y1="-23935.8" x2="8874.56" y2="-23935.8" gradientUnits="userSpaceOnUse">
<stop stop-color="#F1F1F1"/>
<stop offset="1" stop-color="#D9D9D9"/>
</linearGradient>
<linearGradient id="paint30_linear_1693_16056" x1="-46.7719" y1="-23926.2" x2="8874.56" y2="-23926.2" gradientUnits="userSpaceOnUse">
<stop stop-color="#F1F1F1"/>
<stop offset="1" stop-color="#D9D9D9"/>
</linearGradient>
<linearGradient id="paint31_linear_1693_16056" x1="-46.7719" y1="-23916.7" x2="8874.56" y2="-23916.7" gradientUnits="userSpaceOnUse">
<stop stop-color="#F1F1F1"/>
<stop offset="1" stop-color="#D9D9D9"/>
</linearGradient>
<linearGradient id="paint32_linear_1693_16056" x1="-46.7719" y1="-23907.1" x2="8874.56" y2="-23907.1" gradientUnits="userSpaceOnUse">
<stop stop-color="#F1F1F1"/>
<stop offset="1" stop-color="#D9D9D9"/>
</linearGradient>
<linearGradient id="paint33_linear_1693_16056" x1="-46.7719" y1="-23897.6" x2="8874.56" y2="-23897.6" gradientUnits="userSpaceOnUse">
<stop stop-color="#F1F1F1"/>
<stop offset="1" stop-color="#D9D9D9"/>
</linearGradient>
<linearGradient id="paint34_linear_1693_16056" x1="-46.7719" y1="-23888" x2="8874.56" y2="-23888" gradientUnits="userSpaceOnUse">
<stop stop-color="#F1F1F1"/>
<stop offset="1" stop-color="#D9D9D9"/>
</linearGradient>
<linearGradient id="paint35_linear_1693_16056" x1="-46.7719" y1="-23878.5" x2="8874.56" y2="-23878.5" gradientUnits="userSpaceOnUse">
<stop stop-color="#F1F1F1"/>
<stop offset="1" stop-color="#D9D9D9"/>
</linearGradient>
<linearGradient id="paint36_linear_1693_16056" x1="-46.7719" y1="-23868.9" x2="8874.56" y2="-23868.9" gradientUnits="userSpaceOnUse">
<stop stop-color="#F1F1F1"/>
<stop offset="1" stop-color="#D9D9D9"/>
</linearGradient>
<linearGradient id="paint37_linear_1693_16056" x1="-46.7719" y1="-23859.4" x2="8874.56" y2="-23859.4" gradientUnits="userSpaceOnUse">
<stop stop-color="#F1F1F1"/>
<stop offset="1" stop-color="#D9D9D9"/>
</linearGradient>
<linearGradient id="paint38_linear_1693_16056" x1="-46.7719" y1="-23849.8" x2="8874.56" y2="-23849.8" gradientUnits="userSpaceOnUse">
<stop stop-color="#F1F1F1"/>
<stop offset="1" stop-color="#D9D9D9"/>
</linearGradient>
<linearGradient id="paint39_linear_1693_16056" x1="-46.7719" y1="-23840.3" x2="8874.56" y2="-23840.3" gradientUnits="userSpaceOnUse">
<stop stop-color="#F1F1F1"/>
<stop offset="1" stop-color="#D9D9D9"/>
</linearGradient>
<linearGradient id="paint40_linear_1693_16056" x1="-46.7719" y1="-23830.7" x2="8874.56" y2="-23830.7" gradientUnits="userSpaceOnUse">
<stop stop-color="#F1F1F1"/>
<stop offset="1" stop-color="#D9D9D9"/>
</linearGradient>
<linearGradient id="paint41_linear_1693_16056" x1="-46.7719" y1="-23821.2" x2="8874.56" y2="-23821.2" gradientUnits="userSpaceOnUse">
<stop stop-color="#F1F1F1"/>
<stop offset="1" stop-color="#D9D9D9"/>
</linearGradient>
<linearGradient id="paint42_linear_1693_16056" x1="-46.7719" y1="-23811.6" x2="8874.56" y2="-23811.6" gradientUnits="userSpaceOnUse">
<stop stop-color="#F1F1F1"/>
<stop offset="1" stop-color="#D9D9D9"/>
</linearGradient>
<linearGradient id="paint43_linear_1693_16056" x1="-46.7719" y1="-23802.1" x2="8874.56" y2="-23802.1" gradientUnits="userSpaceOnUse">
<stop stop-color="#F1F1F1"/>
<stop offset="1" stop-color="#D9D9D9"/>
</linearGradient>
<linearGradient id="paint44_linear_1693_16056" x1="-46.7719" y1="-23792.5" x2="8874.56" y2="-23792.5" gradientUnits="userSpaceOnUse">
<stop stop-color="#F1F1F1"/>
<stop offset="1" stop-color="#D9D9D9"/>
</linearGradient>
<linearGradient id="paint45_linear_1693_16056" x1="-46.7719" y1="-23782.9" x2="8874.56" y2="-23782.9" gradientUnits="userSpaceOnUse">
<stop stop-color="#F1F1F1"/>
<stop offset="1" stop-color="#D9D9D9"/>
</linearGradient>
<linearGradient id="paint46_linear_1693_16056" x1="-46.7719" y1="-23773.4" x2="8874.56" y2="-23773.4" gradientUnits="userSpaceOnUse">
<stop stop-color="#F1F1F1"/>
<stop offset="1" stop-color="#D9D9D9"/>
</linearGradient>
<linearGradient id="paint47_linear_1693_16056" x1="-46.7719" y1="-23763.8" x2="8874.56" y2="-23763.8" gradientUnits="userSpaceOnUse">
<stop stop-color="#F1F1F1"/>
<stop offset="1" stop-color="#D9D9D9"/>
</linearGradient>
<linearGradient id="paint48_linear_1693_16056" x1="-46.7719" y1="-23754.3" x2="8874.56" y2="-23754.3" gradientUnits="userSpaceOnUse">
<stop stop-color="#F1F1F1"/>
<stop offset="1" stop-color="#D9D9D9"/>
</linearGradient>
<linearGradient id="paint49_linear_1693_16056" x1="-46.7719" y1="-23744.7" x2="8874.56" y2="-23744.7" gradientUnits="userSpaceOnUse">
<stop stop-color="#F1F1F1"/>
<stop offset="1" stop-color="#D9D9D9"/>
</linearGradient>
<linearGradient id="paint50_linear_1693_16056" x1="-46.7719" y1="-23735.2" x2="8874.56" y2="-23735.2" gradientUnits="userSpaceOnUse">
<stop stop-color="#F1F1F1"/>
<stop offset="1" stop-color="#D9D9D9"/>
</linearGradient>
<linearGradient id="paint51_linear_1693_16056" x1="-46.7719" y1="-23725.6" x2="8874.56" y2="-23725.6" gradientUnits="userSpaceOnUse">
<stop stop-color="#F1F1F1"/>
<stop offset="1" stop-color="#D9D9D9"/>
</linearGradient>
<linearGradient id="paint52_linear_1693_16056" x1="-46.7719" y1="-23716.1" x2="8874.56" y2="-23716.1" gradientUnits="userSpaceOnUse">
<stop stop-color="#F1F1F1"/>
<stop offset="1" stop-color="#D9D9D9"/>
</linearGradient>
<linearGradient id="paint53_linear_1693_16056" x1="-46.7719" y1="-23706.5" x2="8874.56" y2="-23706.5" gradientUnits="userSpaceOnUse">
<stop stop-color="#F1F1F1"/>
<stop offset="1" stop-color="#D9D9D9"/>
</linearGradient>
<linearGradient id="paint54_linear_1693_16056" x1="-46.7719" y1="-23697" x2="8874.56" y2="-23697" gradientUnits="userSpaceOnUse">
<stop stop-color="#F1F1F1"/>
<stop offset="1" stop-color="#D9D9D9"/>
</linearGradient>
<linearGradient id="paint55_linear_1693_16056" x1="-46.7719" y1="-23687.4" x2="8874.56" y2="-23687.4" gradientUnits="userSpaceOnUse">
<stop stop-color="#F1F1F1"/>
<stop offset="1" stop-color="#D9D9D9"/>
</linearGradient>
<linearGradient id="paint56_linear_1693_16056" x1="-46.7719" y1="-23677.9" x2="8874.56" y2="-23677.9" gradientUnits="userSpaceOnUse">
<stop stop-color="#F1F1F1"/>
<stop offset="1" stop-color="#D9D9D9"/>
</linearGradient>
<linearGradient id="paint57_linear_1693_16056" x1="-46.7719" y1="-23668.3" x2="8874.56" y2="-23668.3" gradientUnits="userSpaceOnUse">
<stop stop-color="#F1F1F1"/>
<stop offset="1" stop-color="#D9D9D9"/>
</linearGradient>
<linearGradient id="paint58_linear_1693_16056" x1="-46.7719" y1="-23658.8" x2="8874.56" y2="-23658.8" gradientUnits="userSpaceOnUse">
<stop stop-color="#F1F1F1"/>
<stop offset="1" stop-color="#D9D9D9"/>
</linearGradient>
<linearGradient id="paint59_linear_1693_16056" x1="-46.7719" y1="-23649.2" x2="8874.56" y2="-23649.2" gradientUnits="userSpaceOnUse">
<stop stop-color="#F1F1F1"/>
<stop offset="1" stop-color="#D9D9D9"/>
</linearGradient>
<linearGradient id="paint60_linear_1693_16056" x1="-46.7719" y1="-23639.7" x2="8874.56" y2="-23639.7" gradientUnits="userSpaceOnUse">
<stop stop-color="#F1F1F1"/>
<stop offset="1" stop-color="#D9D9D9"/>
</linearGradient>
<linearGradient id="paint61_linear_1693_16056" x1="-46.7719" y1="-23630.1" x2="8874.56" y2="-23630.1" gradientUnits="userSpaceOnUse">
<stop stop-color="#F1F1F1"/>
<stop offset="1" stop-color="#D9D9D9"/>
</linearGradient>
<linearGradient id="paint62_linear_1693_16056" x1="-46.7719" y1="-23620.6" x2="8874.56" y2="-23620.6" gradientUnits="userSpaceOnUse">
<stop stop-color="#F1F1F1"/>
<stop offset="1" stop-color="#D9D9D9"/>
</linearGradient>
<linearGradient id="paint63_linear_1693_16056" x1="-46.7719" y1="-23611" x2="8874.56" y2="-23611" gradientUnits="userSpaceOnUse">
<stop stop-color="#F1F1F1"/>
<stop offset="1" stop-color="#D9D9D9"/>
</linearGradient>
<linearGradient id="paint64_linear_1693_16056" x1="-46.7719" y1="-23601.5" x2="8874.56" y2="-23601.5" gradientUnits="userSpaceOnUse">
<stop stop-color="#F1F1F1"/>
<stop offset="1" stop-color="#D9D9D9"/>
</linearGradient>
<linearGradient id="paint65_linear_1693_16056" x1="-46.7719" y1="-23591.9" x2="8874.56" y2="-23591.9" gradientUnits="userSpaceOnUse">
<stop stop-color="#F1F1F1"/>
<stop offset="1" stop-color="#D9D9D9"/>
</linearGradient>
<linearGradient id="paint66_linear_1693_16056" x1="-46.7719" y1="-23582.3" x2="8874.56" y2="-23582.3" gradientUnits="userSpaceOnUse">
<stop stop-color="#F1F1F1"/>
<stop offset="1" stop-color="#D9D9D9"/>
</linearGradient>
<linearGradient id="paint67_linear_1693_16056" x1="-46.7719" y1="-23572.8" x2="8874.56" y2="-23572.8" gradientUnits="userSpaceOnUse">
<stop stop-color="#F1F1F1"/>
<stop offset="1" stop-color="#D9D9D9"/>
</linearGradient>
<linearGradient id="paint68_linear_1693_16056" x1="-46.7719" y1="-23563.2" x2="8874.56" y2="-23563.2" gradientUnits="userSpaceOnUse">
<stop stop-color="#F1F1F1"/>
<stop offset="1" stop-color="#D9D9D9"/>
</linearGradient>
<linearGradient id="paint69_linear_1693_16056" x1="-46.7719" y1="-23553.7" x2="8874.56" y2="-23553.7" gradientUnits="userSpaceOnUse">
<stop stop-color="#F1F1F1"/>
<stop offset="1" stop-color="#D9D9D9"/>
</linearGradient>
<linearGradient id="paint70_linear_1693_16056" x1="-46.7719" y1="-23544.1" x2="8874.56" y2="-23544.1" gradientUnits="userSpaceOnUse">
<stop stop-color="#F1F1F1"/>
<stop offset="1" stop-color="#D9D9D9"/>
</linearGradient>
<linearGradient id="paint71_linear_1693_16056" x1="-46.7719" y1="-23534.6" x2="8874.56" y2="-23534.6" gradientUnits="userSpaceOnUse">
<stop stop-color="#F1F1F1"/>
<stop offset="1" stop-color="#D9D9D9"/>
</linearGradient>
<linearGradient id="paint72_linear_1693_16056" x1="-46.7719" y1="-23525" x2="8874.56" y2="-23525" gradientUnits="userSpaceOnUse">
<stop stop-color="#F1F1F1"/>
<stop offset="1" stop-color="#D9D9D9"/>
</linearGradient>
<linearGradient id="paint73_linear_1693_16056" x1="-46.7719" y1="-23515.5" x2="8874.56" y2="-23515.5" gradientUnits="userSpaceOnUse">
<stop stop-color="#F1F1F1"/>
<stop offset="1" stop-color="#D9D9D9"/>
</linearGradient>
<linearGradient id="paint74_linear_1693_16056" x1="-46.7719" y1="-23505.9" x2="8874.56" y2="-23505.9" gradientUnits="userSpaceOnUse">
<stop stop-color="#F1F1F1"/>
<stop offset="1" stop-color="#D9D9D9"/>
</linearGradient>
<linearGradient id="paint75_linear_1693_16056" x1="-46.7719" y1="-23496.4" x2="8874.56" y2="-23496.4" gradientUnits="userSpaceOnUse">
<stop stop-color="#F1F1F1"/>
<stop offset="1" stop-color="#D9D9D9"/>
</linearGradient>
<linearGradient id="paint76_linear_1693_16056" x1="-46.7719" y1="-23486.8" x2="8874.56" y2="-23486.8" gradientUnits="userSpaceOnUse">
<stop stop-color="#F1F1F1"/>
<stop offset="1" stop-color="#D9D9D9"/>
</linearGradient>
<linearGradient id="paint77_linear_1693_16056" x1="-46.7719" y1="-23477.3" x2="8874.56" y2="-23477.3" gradientUnits="userSpaceOnUse">
<stop stop-color="#F1F1F1"/>
<stop offset="1" stop-color="#D9D9D9"/>
</linearGradient>
<linearGradient id="paint78_linear_1693_16056" x1="-46.7719" y1="-23467.7" x2="8874.56" y2="-23467.7" gradientUnits="userSpaceOnUse">
<stop stop-color="#F1F1F1"/>
<stop offset="1" stop-color="#D9D9D9"/>
</linearGradient>
<linearGradient id="paint79_linear_1693_16056" x1="-46.7719" y1="-23458.2" x2="8874.56" y2="-23458.2" gradientUnits="userSpaceOnUse">
<stop stop-color="#F1F1F1"/>
<stop offset="1" stop-color="#D9D9D9"/>
</linearGradient>
<linearGradient id="paint80_linear_1693_16056" x1="-46.7719" y1="-23448.6" x2="8874.56" y2="-23448.6" gradientUnits="userSpaceOnUse">
<stop stop-color="#F1F1F1"/>
<stop offset="1" stop-color="#D9D9D9"/>
</linearGradient>
<linearGradient id="paint81_linear_1693_16056" x1="-46.7719" y1="-23439.1" x2="8874.56" y2="-23439.1" gradientUnits="userSpaceOnUse">
<stop stop-color="#F1F1F1"/>
<stop offset="1" stop-color="#D9D9D9"/>
</linearGradient>
<linearGradient id="paint82_linear_1693_16056" x1="-46.7719" y1="-23429.5" x2="8874.56" y2="-23429.5" gradientUnits="userSpaceOnUse">
<stop stop-color="#F1F1F1"/>
<stop offset="1" stop-color="#D9D9D9"/>
</linearGradient>
<linearGradient id="paint83_linear_1693_16056" x1="-46.7719" y1="-23420" x2="8874.56" y2="-23420" gradientUnits="userSpaceOnUse">
<stop stop-color="#F1F1F1"/>
<stop offset="1" stop-color="#D9D9D9"/>
</linearGradient>
<linearGradient id="paint84_linear_1693_16056" x1="-46.7719" y1="-23410.4" x2="8874.56" y2="-23410.4" gradientUnits="userSpaceOnUse">
<stop stop-color="#F1F1F1"/>
<stop offset="1" stop-color="#D9D9D9"/>
</linearGradient>
<linearGradient id="paint85_linear_1693_16056" x1="-46.7719" y1="-23400.8" x2="8874.56" y2="-23400.8" gradientUnits="userSpaceOnUse">
<stop stop-color="#F1F1F1"/>
<stop offset="1" stop-color="#D9D9D9"/>
</linearGradient>
<linearGradient id="paint86_linear_1693_16056" x1="-46.7719" y1="-23391.3" x2="8874.56" y2="-23391.3" gradientUnits="userSpaceOnUse">
<stop stop-color="#F1F1F1"/>
<stop offset="1" stop-color="#D9D9D9"/>
</linearGradient>
<linearGradient id="paint87_linear_1693_16056" x1="-46.7719" y1="-23381.7" x2="8874.56" y2="-23381.7" gradientUnits="userSpaceOnUse">
<stop stop-color="#F1F1F1"/>
<stop offset="1" stop-color="#D9D9D9"/>
</linearGradient>
<clipPath id="clip0_1693_16056">
<rect width="887.72" height="849" fill="white"/>
</clipPath>
</defs>
</svg>
