<svg width="109" height="109" viewBox="0 0 109 109" fill="none" xmlns="http://www.w3.org/2000/svg">
<circle cx="54.8046" cy="54.0351" r="54.0351" fill="#F5B7FF"/>
<path d="M54.807 71.2279H35.6772C35.4469 71.2309 35.2183 71.1878 35.0049 71.1011C34.7915 71.0143 34.5977 70.8858 34.4348 70.7229C34.272 70.56 34.1434 70.3662 34.0566 70.1528C33.9699 69.9394 33.9268 69.7109 33.9298 69.4805V50.3508C33.9298 44.8138 36.1294 39.5036 40.0446 35.5884C43.9598 31.6732 49.27 29.4736 54.807 29.4736V29.4736C57.5486 29.4736 60.2634 30.0136 62.7963 31.0628C65.3292 32.112 67.6307 33.6498 69.5693 35.5884C71.5079 37.527 73.0457 39.8285 74.0949 42.3614C75.1441 44.8944 75.6841 47.6091 75.6841 50.3508V50.3508C75.6841 53.0924 75.1441 55.8071 74.0949 58.3401C73.0457 60.873 71.5079 63.1745 69.5693 65.1131C67.6307 67.0517 65.3292 68.5895 62.7963 69.6387C60.2634 70.6879 57.5486 71.2279 54.807 71.2279V71.2279Z" stroke="#C556D7" stroke-width="2.45614" stroke-linecap="round" stroke-linejoin="round"/>
<path d="M54.8077 52.8078C56.1642 52.8078 57.2638 51.7081 57.2638 50.3516C57.2638 48.9952 56.1642 47.8955 54.8077 47.8955C53.4512 47.8955 52.3516 48.9952 52.3516 50.3516C52.3516 51.7081 53.4512 52.8078 54.8077 52.8078Z" fill="#C556D7"/>
<path d="M44.9796 52.8078C46.3361 52.8078 47.4357 51.7081 47.4357 50.3516C47.4357 48.9952 46.3361 47.8955 44.9796 47.8955C43.6231 47.8955 42.5234 48.9952 42.5234 50.3516C42.5234 51.7081 43.6231 52.8078 44.9796 52.8078Z" fill="#C556D7"/>
<path d="M64.628 52.8078C65.9845 52.8078 67.0842 51.7081 67.0842 50.3516C67.0842 48.9952 65.9845 47.8955 64.628 47.8955C63.2715 47.8955 62.1719 48.9952 62.1719 50.3516C62.1719 51.7081 63.2715 52.8078 64.628 52.8078Z" fill="#C556D7"/>
</svg>
